<?xml version="1.0" standalone="no"?>
<!DOCTYPE svg PUBLIC "-//W3C//DTD SVG 1.1//EN" "http://www.w3.org/Graphics/SVG/1.1/DTD/svg11.dtd" >
<svg xmlns="http://www.w3.org/2000/svg" xmlns:xlink="http://www.w3.org/1999/xlink" version="1.1">
<metadata></metadata>
<defs>
<font id="space_monobold" horiz-adv-x="1253" >
<font-face units-per-em="2048" ascent="1638" descent="-410" />
<missing-glyph horiz-adv-x="500" />
<glyph unicode="&#xfb01;" d="M786 1319q0 39 15.5 75t42 61.5t61.5 40.5t76 15q80 0 136.5 -56t56.5 -136q0 -41 -15.5 -76t-41 -61.5t-61.5 -42t-75 -15.5q-41 0 -76 15.5t-61.5 42t-42 61.5t-15.5 76zM49 1016h240v209q0 88 59.5 148.5t147.5 60.5h192v-246h-86q-55 0 -55 -62v-110h563v-1016h-258 v770h-305v-770h-258v770h-240v246z" />
<glyph unicode="&#xfb02;" d="M754 770h-207v-770h-258v770h-240v246h240v209q0 88 59.5 148.5t147.5 60.5h614v-1434h-258v1188h-250q-55 0 -55 -62v-110h207v-246z" />
<glyph horiz-adv-x="0" />
<glyph horiz-adv-x="682" />
<glyph />
<glyph />
<glyph unicode=" " />
<glyph unicode="!" d="M762 1434v-1000h-270v1000h270zM821 166q0 -41 -15 -77t-42 -61.5t-62.5 -41t-74.5 -15.5q-41 0 -76 15.5t-61.5 41t-42 61.5t-15.5 77t15.5 77t42 61.5t61.5 40.5t76 15q39 0 74.5 -15t62.5 -40.5t42 -61.5t15 -77z" />
<glyph unicode="&#x22;" d="M940 836h-164v256q-49 23 -80.5 70.5t-31.5 107.5q0 39 15 74.5t42 61.5t61.5 41t75.5 15q39 0 75 -15t62.5 -41t42 -61.5t15.5 -74.5q0 -59 -32 -107.5t-81 -70.5v-256zM477 836h-164v256q-49 23 -80.5 70.5t-31.5 107.5q0 39 15 74.5t42 61.5t61.5 41t75.5 15 q39 0 75 -15t62.5 -41t42 -61.5t15.5 -74.5q0 -59 -32 -107.5t-81 -70.5v-256z" />
<glyph unicode="#" d="M705 184v234h-156v-234h-221v234h-209v221h209v156h-209v221h209v233h221v-233h156v233h221v-233h209v-221h-209v-156h209v-221h-209v-234h-221zM705 795h-156v-156h156v156z" />
<glyph unicode="$" d="M725 1241q139 -29 215 -115t76 -204v-29h-234v29q0 25 -13 48t-44 40v-185q315 -43 315 -301v-12q0 -137 -83 -223t-232 -105v-127h-197v133q-84 14 -143 48t-97 81.5t-56.5 105.5t-18.5 120v41h233v-29q0 -47 18.5 -82t63.5 -55v221q-141 25 -222 92.5t-81 196.5v12 q0 70 24.5 122t65.5 90t96.5 60.5t116.5 32.5v129h197v-135zM807 508q0 31 -14.5 56.5t-67.5 41.5v-194q47 14 64.5 40.5t17.5 55.5zM459 942q0 -29 12 -48.5t57 -35.5v162q-37 -12 -53 -33.5t-16 -44.5z" />
<glyph unicode="%" d="M692 1151q0 -74 -26.5 -130t-70.5 -96t-100.5 -60.5t-115.5 -20.5t-115.5 20.5t-100.5 60.5t-70.5 96t-26.5 130t26.5 130t70.5 96t100 60.5t116 20.5q59 0 115.5 -20.5t100.5 -60.5t70.5 -96t26.5 -130zM379 1016q51 0 90 34.5t39 100.5t-39 100.5t-90 34.5t-90 -34.5 t-39 -100.5t39 -100.5t90 -34.5zM1188 283q0 -74 -26.5 -130.5t-70.5 -96.5t-100.5 -60.5t-116.5 -20.5q-59 0 -115.5 20.5t-100.5 60.5t-70.5 96.5t-26.5 130.5t26.5 130t70.5 96t100.5 60.5t115.5 20.5t116 -20.5t101 -60.5t70.5 -96t26.5 -130zM874 147q51 0 90.5 35 t39.5 101t-39 100.5t-91 34.5q-51 0 -90 -35t-39 -100q0 -66 39 -101t90 -35zM1067 1044l84 -159l-967 -496l-84 160z" />
<glyph unicode="&#x26;" d="M764 602h-227q-86 0 -139.5 -43t-53.5 -129v-12q0 -86 53.5 -129t139.5 -43h227v356zM1022 1016v-168h188v-258h-188v-590h-512q-102 0 -182 28.5t-133.5 79t-81 119t-27.5 148.5v24q0 123 68.5 198t173.5 103v37q-104 29 -173 102.5t-69 196.5v25q0 80 27.5 148.5 t81 117.5t133.5 78t182 29h223v-246h-196q-86 0 -139.5 -40t-53.5 -124v-12q0 -86 53.5 -125t139.5 -39h227v168h258z" />
<glyph unicode="'" d="M547 1092q-51 23 -83 70.5t-32 107.5q0 39 15.5 74.5t42 61.5t61.5 41t76 15q39 0 74.5 -15t61 -41t41 -61.5t15.5 -74.5q0 -59 -31.5 -107.5t-80.5 -70.5v-256h-160v256z" />
<glyph unicode="(" d="M1167 -61v-258h-86q-152 0 -288 44t-238 137t-162.5 238.5t-60.5 345.5v541q0 201 60.5 346.5t162.5 238.5t238.5 137t287.5 44h86v-258h-73q-106 0 -196.5 -28.5t-157 -92t-104.5 -163t-38 -240.5v-508q0 -141 38 -240.5t104.5 -163t156.5 -92t197 -28.5h73z" />
<glyph unicode=")" d="M160 -61q106 0 196 28.5t157 92t104.5 163t37.5 240.5v508q0 141 -37.5 240.5t-104.5 163t-157 92t-196 28.5h-74v258h86q152 0 288 -44t238.5 -137t163 -238.5t60.5 -346.5v-541q0 -201 -60.5 -346t-163 -238t-238.5 -137t-288 -44h-86v258h74z" />
<glyph unicode="*" d="M918 289l-150 149l-68 152l-32 -15l57 -149v-217h-197v217l58 149l-33 15l-68 -152l-149 -149l-137 137l149 149l152 68l-15 33l-149 -58h-217v197h217l149 -57l15 33l-152 67l-149 150l137 137l149 -150l68 -151l33 14l-58 150v217h197v-217l-57 -150l32 -14l68 151 l150 150l137 -137l-150 -150l-151 -67l14 -33l150 57h217v-197h-217l-150 58l-14 -33l151 -68l150 -149z" />
<glyph unicode="+" d="M199 834h311v311h233v-311h312v-234h-312v-311h-233v311h-311v234z" />
<glyph unicode="," d="M432 166q0 39 15.5 74.5t42 61.5t61.5 41t76 15q39 0 74.5 -15t62.5 -41t42 -61.5t15 -74.5v-250q0 -78 -52 -131t-130 -53h-131v159h98q55 0 56 62v24q-16 -6 -35 -6q-41 0 -76 15.5t-61.5 42t-42 61.5t-15.5 76z" />
<glyph unicode="-" d="M307 680h639v-234h-639v234z" />
<glyph unicode="." d="M821 166q0 -41 -15 -77t-42 -61.5t-62.5 -41t-74.5 -15.5q-41 0 -76 15.5t-61.5 41t-42 61.5t-15.5 77t15.5 77t42 61.5t61.5 40.5t76 15q39 0 74.5 -15t62.5 -40.5t42 -61.5t15 -77z" />
<glyph unicode="/" d="M817 1690l234 -74l-613 -1872l-235 74z" />
<glyph unicode="0" d="M455 717q0 70 51 121t121 51t121 -51.5t51 -120.5q0 -70 -51.5 -121t-120.5 -51q-70 0 -121 51t-51 121zM98 877q0 279 140.5 432t388.5 153t388 -153.5t140 -431.5v-320q0 -287 -140.5 -436.5t-387.5 -149.5q-248 0 -388.5 149.5t-140.5 436.5v320zM627 217 q74 0 123 23.5t79.5 66.5t43 102.5t12.5 131.5v352q0 68 -14.5 127t-45 102t-80 69t-118.5 26q-70 0 -119 -26t-80 -69t-45 -102t-14 -127v-352q0 -72 12 -131.5t43 -102.5t80 -66.5t123 -23.5z" />
<glyph unicode="1" d="M541 258v1040h-37l-135 -491h-258v24l172 603h528v-1176h356v-258h-1032v258h406z" />
<glyph unicode="2" d="M1141 258v-258h-1008v283q0 113 34 192.5t96.5 135t150.5 91t198 60.5q82 18 134.5 41.5t83 53.5t42 65.5t11.5 81.5q0 86 -62.5 143t-173.5 57q-117 0 -186.5 -70.5t-69.5 -195.5v-90h-270v115q0 100 36 191t102.5 159.5t162.5 108.5t217 40q129 0 225.5 -38t161 -99 t96 -142t31.5 -167v-25q0 -180 -101.5 -299t-330.5 -172q-96 -23 -158.5 -46t-97.5 -52t-48.5 -62.5t-13.5 -76.5v-25h738z" />
<glyph unicode="3" d="M487 614v426l357 99v37h-713v258h934v-451l-381 -111v-36h49q76 0 149.5 -24t130 -73t91.5 -121.5t35 -171.5v-24q0 -96 -32 -178t-94.5 -142.5t-154.5 -95.5t-211 -35q-121 0 -219 39t-166.5 106.5t-105.5 155.5t-37 187v86h270v-74q0 -98 63.5 -170t190.5 -72 q109 0 167 55.5t58 145.5q0 96 -62.5 140t-158.5 44h-160z" />
<glyph unicode="4" d="M475 1434h512v-906h209v-258h-209v-270h-270v270h-639v373zM311 565v-37h406v770h-37z" />
<glyph unicode="5" d="M135 639v795h959v-258h-688v-390h36q29 80 108 138.5t212 58.5q100 0 180 -35t135.5 -96t85 -147.5t29.5 -188.5v-12q0 -109 -36 -205t-104.5 -169t-169 -116t-231.5 -43t-231.5 36t-169 100.5t-104 153.5t-35.5 194v49h270v-25q0 -109 66.5 -179.5t195.5 -70.5t204 70 t75 193q0 117 -55.5 175t-145.5 58q-59 0 -96 -25.5t-47 -60.5h-443z" />
<glyph unicode="6" d="M842 1028q0 72 -52.5 124t-162.5 52q-111 0 -175.5 -64.5t-64.5 -168.5v-185h37q35 72 112.5 116t176.5 44q88 0 165.5 -31.5t135 -90t90.5 -142.5t33 -190v-25q0 -109 -36 -200t-102.5 -156.5t-161 -102.5t-210.5 -37q-106 0 -199.5 35t-162 97.5t-108.5 149.5t-40 191 v523q0 113 41 205t110.5 156.5t160.5 99t194 34.5q102 0 191 -29.5t155.5 -86t104.5 -137.5t38 -181h-270zM627 229q104 0 171.5 62.5t67.5 167.5q0 104 -67.5 166.5t-171.5 62.5t-172 -62.5t-68 -166.5t68 -167t172 -63z" />
<glyph unicode="7" d="M123 1434h1007v-422l-518 -758q-41 -61 -64.5 -105.5t-23.5 -99.5v-49h-291v61q0 41 6.5 74t19.5 65.5t35.5 69.5t55.5 86l535 783v37h-762v258z" />
<glyph unicode="8" d="M627 -29q-121 0 -217.5 30t-164 83t-104.5 126t-37 163v12q0 76 21.5 133t57.5 98t81 68t94 41v37q-43 16 -82.5 42.5t-69.5 64.5t-47.5 90.5t-17.5 117.5v13q0 88 41 157.5t108.5 117.5t154.5 72.5t182 24.5q94 0 181 -24.5t154.5 -72.5t108.5 -117.5t41 -157.5v-13 q0 -66 -17.5 -118t-47 -90t-69.5 -64.5t-83 -42.5v-37q49 -14 94 -41t81 -68t57.5 -98t21.5 -133v-12q0 -90 -37 -164t-104.5 -126t-164.5 -82t-216 -30zM627 229q121 0 186.5 54.5t65.5 138.5t-65.5 138t-186.5 54t-186.5 -54t-65.5 -138t65.5 -138.5t186.5 -54.5z M627 1204q-92 0 -153.5 -47t-61.5 -119t61.5 -119t153.5 -47t153.5 47.5t61.5 118.5q0 72 -61.5 119t-153.5 47z" />
<glyph unicode="9" d="M412 406q0 -72 52 -124.5t163 -52.5t175 64.5t64 169.5v184h-37q-29 -72 -94 -116t-186 -44q-92 0 -171 34t-137.5 95.5t-91 147.5t-32.5 190v25q0 102 36.5 191.5t103.5 154t162 101t212 36.5q106 0 199.5 -34.5t161 -97t106.5 -149.5t39 -192v-522q0 -117 -39 -209 t-106.5 -155.5t-159 -97.5t-197.5 -34q-104 0 -194.5 30t-157 86t-104.5 136t-38 183h271zM627 1204q-104 0 -172 -62.5t-68 -166.5t67.5 -167t172.5 -63q104 0 171.5 62.5t67.5 167.5q0 104 -67.5 166.5t-171.5 62.5z" />
<glyph unicode=":" d="M821 166q0 -41 -15 -77t-42 -61.5t-62.5 -41t-74.5 -15.5q-41 0 -76 15.5t-61.5 41t-42 61.5t-15.5 77t15.5 77t42 61.5t61.5 40.5t76 15q39 0 74.5 -15t62.5 -40.5t42 -61.5t15 -77zM821 850q0 -41 -15 -77t-42 -61.5t-62.5 -41t-74.5 -15.5q-41 0 -76 15.5t-61.5 41 t-42 61.5t-15.5 77t15.5 77t42 61.5t61.5 40.5t76 15q39 0 74.5 -15t62.5 -40.5t42 -61.5t15 -77z" />
<glyph unicode=";" d="M432 166q0 41 15.5 77t42 61.5t61.5 40.5t76 15q39 0 74.5 -15t62.5 -40.5t42 -61.5t15 -77v-250q0 -78 -52 -131t-130 -53h-131v159h98q55 0 56 62v24q-16 -6 -35 -6q-41 0 -76 15.5t-61.5 41t-42 61.5t-15.5 77zM821 850q0 -41 -15 -77t-42 -61.5t-62.5 -41 t-74.5 -15.5q-41 0 -76 15.5t-61.5 41t-42 61.5t-15.5 77t15.5 77t42 61.5t61.5 40.5t76 15q39 0 74.5 -15t62.5 -40.5t42 -61.5t15 -77z" />
<glyph unicode="&#x3c;" d="M199 504v426l856 237v-245l-697 -187v-37l697 -186v-246z" />
<glyph unicode="=" d="M199 1012h856v-234h-856v234zM199 655h856v-233h-856v233z" />
<glyph unicode="&#x3e;" d="M199 266v246l696 186v37l-696 187v245l856 -237v-426z" />
<glyph unicode="?" d="M672 799q88 0 138 55t50 145q0 86 -59.5 145.5t-161.5 59.5q-55 0 -98 -19.5t-74 -53t-46 -77.5t-15 -91v-86h-271v110q0 92 34 178t98.5 151.5t159.5 105.5t216 40q109 0 199 -35.5t154.5 -99t99 -148.5t34.5 -184v-12q0 -84 -25.5 -159.5t-72.5 -133t-116.5 -92.5 t-155.5 -35q-29 0 -43.5 -16.5t-14.5 -44.5v-68h-258v176q0 80 54.5 134.5t134.5 54.5h39zM770 166q0 -41 -15.5 -77t-42 -61.5t-62.5 -41t-75 -15.5q-41 0 -75.5 15.5t-61 41t-42 61.5t-15.5 77t15.5 77t42 61.5t61.5 40.5t75 15q39 0 75 -15t62.5 -40.5t42 -61.5t15.5 -77 z" />
<glyph unicode="@" d="M123 1044v246h643q201 0 319.5 -106.5t118.5 -319.5v-696q0 -86 -54 -141.5t-140 -55.5h-252q-78 0 -114 34t-42 81h-37q-18 -47 -66 -81t-139 -34q-72 0 -132 28t-104 84t-69.5 142t-25.5 203v12q0 117 27.5 203t73.5 142.5t108.5 84t134.5 27.5q78 0 120 -29.5 t60 -72.5h37v73h246v-606q0 -57 55 -57h12q55 0 55 57v537q0 246 -245 245h-590zM434 205q84 0 120 62.5t36 160.5v12q0 98 -36 161t-120 63q-78 0 -119 -62.5t-41 -161.5v-12q0 -98 41 -160.5t119 -62.5z" />
<glyph unicode="A" d="M870 307h-487l-70 -307h-282l342 1434h508l342 -1434h-283zM440 565h371l-166 733h-37z" />
<glyph unicode="B" d="M94 258h135v918h-135v258h629q102 0 181 -29t133.5 -78t82 -117.5t27.5 -148.5v-25q0 -123 -68.5 -196.5t-173.5 -102.5v-37q104 -29 173 -103.5t69 -197.5v-24q0 -80 -27.5 -148.5t-82 -119t-133.5 -79t-181 -28.5h-629v258zM500 258h196q86 0 139.5 37t53.5 123v12 q0 86 -53.5 123t-139.5 37h-196v-332zM500 848h196q86 0 139.5 36t53.5 122v12q0 86 -53.5 122t-139.5 36h-196v-328z" />
<glyph unicode="C" d="M631 217q78 0 128 23.5t77.5 63.5t38 92.5t10.5 107.5v37h270v-37q0 -256 -134 -394.5t-390 -138.5q-246 0 -389.5 149.5t-143.5 436.5v320q0 137 37 246.5t106.5 184t168 114.5t221.5 40q127 0 225 -36.5t164.5 -106.5t100.5 -168t34 -221v-37h-270v37q0 51 -12.5 102 t-41 92t-77.5 67t-123 26q-68 0 -117 -26t-82 -70t-48 -102t-15 -122v-360q0 -70 14 -128.5t45 -101.5t81 -66.5t122 -23.5z" />
<glyph unicode="D" d="M94 1434h520q266 0 395.5 -124t129.5 -384v-418q0 -260 -129 -384t-396 -124h-520v260h135v916h-135v258zM614 258q141 0 197.5 66.5t56.5 207.5v394q0 123 -56 186.5t-198 63.5h-114v-918h114z" />
<glyph unicode="E" d="M168 1434h905v-258h-635v-328h611v-258h-611v-332h660v-258h-930v1434z" />
<glyph unicode="F" d="M180 1434h918v-258h-647v-328h634v-258h-634v-590h-271v1434z" />
<glyph unicode="G" d="M532 725h615v-725h-246v160h-37q-25 -80 -94.5 -134.5t-208.5 -54.5q-98 0 -184 37t-149.5 109.5t-100.5 180.5t-37 251v336q0 139 40 246.5t110.5 181t169 111.5t217.5 38q123 0 219 -40t163.5 -110.5t102.5 -165.5t35 -204v-24h-270v24q0 129 -67 195.5t-187 66.5 q-115 0 -189 -76.5t-74 -263.5v-303q0 -332 271 -332q121 0 183.5 64.5t62.5 173.5h-345v258z" />
<glyph unicode="H" d="M125 1434h270v-586h463v586h270v-1434h-270v590h-463v-590h-270v1434z" />
<glyph unicode="I" d="M147 1434h959v-258h-344v-918h344v-258h-959v258h345v918h-345v258z" />
<glyph unicode="J" d="M1059 430q0 -223 -121 -341t-332 -118q-109 0 -196.5 30t-151 88t-98.5 143t-35 198v135h270v-135q0 -96 53.5 -150.5t149.5 -54.5q90 0 140 53.5t50 151.5v750h-147v254h541v-254h-123v-750z" />
<glyph unicode="K" d="M428 0h-270v1434h270v-588h59l379 588h305v-13l-442 -686v-37l467 -686v-12h-317l-392 588h-59v-588z" />
<glyph unicode="L" d="M168 1434h270v-1176h652v-258h-922v1434z" />
<glyph unicode="M" d="M45 1434h475l82 -1078v-209h49v209l82 1078h475v-1434h-245v958l24 328h-49l-107 -1286h-405l-111 1286h-49l25 -328v-958h-246v1434z" />
<glyph unicode="N" d="M821 135h37v1299h270v-1434h-528l-168 1298h-37v-1298h-270v1434h528z" />
<glyph unicode="O" d="M98 877q0 279 140.5 432t388.5 153t388 -153.5t140 -431.5v-320q0 -287 -140.5 -436.5t-387.5 -149.5q-248 0 -388.5 149.5t-140.5 436.5v320zM627 217q74 0 123 23.5t79.5 66.5t43 102.5t12.5 131.5v352q0 68 -14.5 127t-45 102t-80 69t-118.5 26q-70 0 -119 -26 t-80 -69t-45 -102t-14 -127v-352q0 -72 12 -131.5t43 -102.5t80 -66.5t123 -23.5z" />
<glyph unicode="P" d="M418 541v-541h-271v1434h562q111 0 192.5 -36t136 -94.5t82 -133t27.5 -152.5v-49q0 -80 -27.5 -157t-82 -137.5t-136.5 -97t-192 -36.5h-291zM418 799h264q90 0 142.5 49t52.5 127v24q0 78 -52.5 127.5t-142.5 49.5h-264v-377z" />
<glyph unicode="Q" d="M498 -16q-190 35 -295 180t-105 393v320q0 279 140.5 432t388.5 153t388 -153.5t140 -431.5v-320q0 -248 -105.5 -393.5t-293.5 -179.5v-37q0 -57 51 -58h127v-245h-242q-84 0 -139 56t-55 140v144zM627 217q74 0 123 24.5t79.5 67.5t43 103.5t12.5 132.5v344 q0 68 -14.5 127t-45 104t-80 71t-118.5 26q-70 0 -119 -26t-80 -71t-45 -104.5t-14 -126.5v-344q0 -72 12 -132.5t43 -103.5t80 -67.5t123 -24.5z" />
<glyph unicode="R" d="M1112 0h-270v430q0 49 -25.5 80t-85.5 31h-311v-541h-270v1434h548q111 0 195 -31t140.5 -85t86 -126t29.5 -154v-49q0 -88 -47 -164.5t-146 -117.5v-37q72 -8 114 -55.5t42 -118.5v-496zM420 799h258q98 0 149.5 46t51.5 130v24q0 72 -51.5 124.5t-149.5 52.5h-258v-377 z" />
<glyph unicode="S" d="M872 995q0 86 -66.5 149.5t-187.5 63.5q-102 0 -161.5 -42t-59.5 -113q0 -37 14.5 -67t50.5 -53.5t94 -42t149 -34.5q225 -41 343.5 -137t118.5 -285v-24q0 -100 -35.5 -181.5t-103 -138.5t-164 -88t-217.5 -31q-141 0 -248.5 40t-179.5 111t-108.5 166t-36.5 208v61h270 v-49q0 -129 75 -206t232 -77q123 0 182.5 53.5t59.5 127.5q0 35 -12.5 66.5t-43 57t-84 46t-135.5 34.5q-109 18 -198.5 48t-156 79t-103.5 123t-37 180v13q0 88 36 162.5t100.5 130t155.5 86t203 30.5q127 0 225.5 -35.5t165 -97t100.5 -141.5t34 -168v-74h-271v49z" />
<glyph unicode="T" d="M111 1434h1032v-258h-381v-1176h-270v1176h-381v258z" />
<glyph unicode="U" d="M1143 1434v-938q0 -246 -130 -385.5t-386 -139.5t-386 139.5t-130 385.5v938h270v-938q0 -127 59.5 -199t186.5 -72t186 72t59 199v938h271z" />
<glyph unicode="V" d="M49 1434h279l280 -1299h37l281 1299h278l-323 -1434h-508z" />
<glyph unicode="W" d="M1188 0h-471l-66 1090v196h-49v-196l-65 -1090h-471l-50 1434h246l33 -1090v-184h49v184l66 1090h434l65 -1090v-184h49v184l33 1090h246z" />
<glyph unicode="X" d="M360 1434l242 -586h49l242 586h293l-295 -697v-37l295 -700h-293l-242 590h-49l-242 -590h-292l294 700v37l-294 697h292z" />
<glyph unicode="Y" d="M492 504h-62l-412 930h295l295 -684h37l295 684h295l-412 -930h-61v-504h-270v504z" />
<glyph unicode="Z" d="M109 1434h1019v-443l-811 -696v-37h836v-258h-1057v442l811 697v37h-798v258z" />
<glyph unicode="[" d="M483 1544q0 92 58.5 150.5t150.5 58.5h271v-246h-166q-55 0 -56 -61v-1458q0 -61 56 -62h166v-245h-271q-92 0 -150.5 58t-58.5 150v1655z" />
<glyph unicode="\" d="M1051 -182l-236 -74l-612 1872l233 74z" />
<glyph unicode="]" d="M770 -111q0 -92 -58.5 -150t-150.5 -58h-270v245h166q55 0 55 62v1458q0 61 -55 61h-166v246h270q92 0 150.5 -58.5t58.5 -150.5v-1655z" />
<glyph unicode="^" d="M1118 868h-287l-186 430h-37l-186 -430h-287l275 566h434z" />
<glyph unicode="_" d="M125 -98h1003v-234h-1003v234z" />
<glyph unicode="`" d="M813 1167h-209l-172 279h275z" />
<glyph unicode="a" d="M817 147q-41 -96 -114.5 -136t-172.5 -40q-92 0 -173 35t-142 102.5t-97 164t-36 219.5v32q0 121 35 217.5t94 164t138 103t169 35.5q109 0 175.5 -36.5t105.5 -114.5h37v123h258v-709q0 -61 55 -61h39v-246h-176q-70 0 -114 41t-44 106h-37zM588 217q113 0 180.5 75 t67.5 204v24q0 129 -68 204t-180 75q-113 0 -180.5 -75t-67.5 -204v-24q0 -129 67.5 -204t180.5 -75z" />
<glyph unicode="b" d="M375 0h-258v1434h258v-566h37q41 84 118.5 130t198.5 46q90 0 171 -34.5t141.5 -101t96.5 -163t36 -219.5v-37q0 -125 -35 -221t-94.5 -162.5t-140.5 -100.5t-175 -34q-70 0 -121 14.5t-89 39t-63.5 56.5t-43.5 66h-37v-147zM645 217q121 0 195.5 75t74.5 204v24 q0 129 -74.5 204t-195.5 75t-195.5 -77t-74.5 -202v-24q0 -125 74.5 -202t195.5 -77z" />
<glyph unicode="c" d="M1151 373q-35 -180 -165 -291t-347 -111q-113 0 -210 35t-169 100.5t-113 162t-41 218.5v25q0 123 41 221t114 168t170 106.5t208 36.5q213 0 345 -110.5t167 -290.5l-254 -65q-12 90 -77.5 155.5t-184.5 65.5q-55 0 -104.5 -20.5t-86 -58.5t-58 -92.5t-21.5 -121.5v-12 q0 -68 21.5 -120t58 -87t86 -52.5t104.5 -17.5q119 0 181.5 59.5t80.5 159.5z" />
<glyph unicode="d" d="M889 147h-37q-16 -35 -40 -66.5t-61.5 -56t-90 -39t-125.5 -14.5q-94 0 -175 34t-141.5 100.5t-94.5 163t-34 220.5v37q0 123 36 219.5t98.5 163t145.5 101t175 34.5q123 0 194.5 -46t112.5 -130h37v566h258v-1434h-258v147zM618 217q121 0 196 77t75 202v24 q0 125 -75 202t-196 77t-195.5 -75t-74.5 -204v-24q0 -129 74.5 -204t195.5 -75z" />
<glyph unicode="e" d="M387 424q2 -45 21.5 -83t53.5 -65.5t78 -43t93 -15.5q96 0 147 34t74 81l221 -123q-18 -39 -51 -81t-85 -77t-127 -57.5t-175 -22.5q-115 0 -209 37t-162.5 106.5t-106.5 170t-38 227.5v12q0 117 40 213.5t109.5 164t162.5 105t200 37.5q131 0 225 -46t155.5 -116.5 t90.5 -155.5t29 -165v-137h-746zM631 811q-98 0 -159.5 -50t-80.5 -116h479q-12 72 -76.5 119t-162.5 47z" />
<glyph unicode="f" d="M152 1016h288v209q0 88 59.5 148.5t147.5 60.5h414v-246h-307q-55 0 -56 -62v-110h400v-246h-400v-770h-258v770h-288v246z" />
<glyph unicode="g" d="M885 147h-37q-16 -35 -40 -66.5t-61.5 -56t-90 -39t-126.5 -14.5q-94 0 -175 34t-141 100.5t-94 163t-34 220.5v37q0 123 36 219.5t98.5 163t145.5 101t175 34.5q123 0 194.5 -46t112.5 -130h37v148h258v-1266q0 -70 -44 -115t-114 -45h-684v246h528q55 0 56 62v249z M614 217q121 0 196 77t75 202v24q0 125 -75 202t-196 77t-195.5 -75t-74.5 -204v-24q0 -129 74.5 -204t195.5 -75z" />
<glyph unicode="h" d="M422 0h-258v1434h258v-582h37q39 92 114.5 142t186.5 50q76 0 139.5 -24.5t110.5 -73.5t73.5 -126t26.5 -181v-639h-258v578q0 109 -52 171t-151 62q-115 0 -171 -77t-56 -206v-528z" />
<glyph unicode="i" d="M178 246h344v524h-319v246h577v-770h295v-246h-897v246zM844 1317q0 -41 -15.5 -77t-42 -61.5t-62.5 -41t-75 -15.5q-41 0 -75.5 15.5t-61.5 41t-42 61.5t-15 77t15 77t42 61.5t61.5 40.5t75.5 15q39 0 75 -15t62.5 -40.5t42 -61.5t15.5 -77z" />
<glyph unicode="j" d="M258 1016h651v-1217q0 -106 -57 -157.5t-150 -51.5h-481v246h369q61 0 61 68v866h-393v246zM971 1317q0 -41 -15.5 -77t-42 -61.5t-62.5 -41t-75 -15.5q-41 0 -75.5 15.5t-61.5 41t-42 61.5t-15 77t15 77t42 61.5t61.5 40.5t75.5 15q39 0 75 -15t62.5 -40.5t42 -61.5 t15.5 -77z" />
<glyph unicode="k" d="M500 643h49l270 373h283v-12l-328 -465v-37l361 -490v-12h-295l-291 397h-49v-397h-258v1434h258v-791z" />
<glyph unicode="l" d="M154 246h356v942h-344v246h602v-1188h332v-246h-946v246z" />
<glyph unicode="m" d="M1180 0h-258v713q0 43 -21.5 64.5t-56.5 21.5q-41 0 -64.5 -24.5t-23.5 -74.5v-700h-258v713q0 43 -23.5 64.5t-56.5 21.5q-37 0 -61.5 -24.5t-24.5 -74.5v-700h-258v1016h258v-98h37q12 55 56 90.5t116 35.5q68 0 114.5 -35.5t63.5 -90.5h37q16 55 68.5 90.5t129.5 35.5 q102 0 164 -68.5t62 -189.5v-786z" />
<glyph unicode="n" d="M418 0h-258v1016h258v-152h37q35 86 112.5 133t182.5 47q74 0 138 -23.5t113.5 -72.5t77 -124.5t27.5 -180.5v-643h-258v578q0 109 -52.5 171t-150.5 62q-115 0 -171 -77t-56 -206v-528z" />
<glyph unicode="o" d="M1155 496q0 -127 -43 -224.5t-116.5 -164t-169 -101.5t-199.5 -35t-199.5 35t-169.5 101.5t-117 164t-43 224.5v24q0 125 43 222.5t117 165t169 102t200 34.5q104 0 199.5 -34.5t169 -102t116.5 -165t43 -222.5v-24zM627 217q55 0 104 18.5t86 53.5t58.5 85t21.5 113v41 q0 63 -21.5 113.5t-58.5 85.5t-86 53.5t-104 18.5t-104.5 -18.5t-86.5 -53.5t-58.5 -85t-21.5 -114v-41q0 -63 21.5 -113t58.5 -85t86.5 -53.5t104.5 -18.5z" />
<glyph unicode="p" d="M365 -410h-259v1426h259v-148h36q41 84 119 130t199 46q90 0 171 -34.5t141.5 -101t96 -163t35.5 -219.5v-37q0 -125 -34.5 -221t-94 -162.5t-140.5 -100.5t-175 -34q-70 0 -121 14.5t-89 39t-63.5 56.5t-44.5 66h-36v-557zM635 217q121 0 195.5 75t74.5 204v24 q0 129 -74.5 204t-195.5 75t-195.5 -77t-74.5 -202v-24q0 -125 74.5 -202t195.5 -77z" />
<glyph unicode="q" d="M889 147h-37q-16 -35 -40 -66.5t-61.5 -56t-90 -39t-125.5 -14.5q-94 0 -175 34t-141.5 100.5t-94.5 163t-34 220.5v37q0 123 36 219.5t98.5 163t145.5 101t175 34.5q123 0 194.5 -46t112.5 -130h37v148h258v-1426h-258v557zM618 217q121 0 196 77t75 202v24 q0 125 -75 202t-196 77t-195.5 -75t-74.5 -204v-24q0 -129 74.5 -204t195.5 -75z" />
<glyph unicode="r" d="M111 1016h430v-148h37q29 84 97 130t165 46q152 0 244 -95t92 -290v-45l-267 -24v28q0 84 -43 134.5t-129 50.5t-135 -59.5t-49 -170.5v-327h233v-246h-700v246h209v524h-184v246z" />
<glyph unicode="s" d="M483 729q0 -49 51.5 -70.5t186.5 -35.5q156 -16 254 -93t98 -215v-12q0 -152 -110.5 -242t-311.5 -90q-119 0 -202.5 31t-139 77t-85 102.5t-40.5 109.5l238 78q16 -66 68.5 -115t160.5 -49q96 0 132 29.5t36 64.5q0 20 -9 37.5t-33.5 33t-66.5 26t-106 16.5 q-172 14 -273.5 88.5t-101.5 220.5v12q0 76 33 133.5t86 97.5t123 60t143 20q96 0 167 -23.5t120 -61t80 -84t47 -89.5l-233 -94q-18 55 -63.5 87t-117.5 32q-66 0 -98.5 -23.5t-32.5 -58.5z" />
<glyph unicode="t" d="M131 1016h301v418h258v-418h367v-246h-367v-463q0 -61 55 -61h275v-246h-430q-70 0 -114 45t-44 115v610h-301v246z" />
<glyph unicode="u" d="M848 1016h258v-1016h-258v147h-37q-68 -176 -291 -176q-76 0 -141.5 24.5t-114.5 76t-76.5 128t-27.5 181.5v635h258v-582q0 -109 51 -169t154 -60q117 0 171 74.5t54 203.5v533z" />
<glyph unicode="v" d="M88 1016h279l239 -893h37l240 893h278l-291 -1016h-491z" />
<glyph unicode="w" d="M1155 0h-446l-58 770v123h-49v-123l-57 -770h-447l-67 1016h237l45 -770v-123h49v123l52 770h426l51 -770v-123h49v123l45 770h238z" />
<glyph unicode="x" d="M834 1016h284l-246 -477v-37l261 -502h-297l-191 397h-37l-190 -397h-297l260 502v37l-248 477h287l188 -373h37z" />
<glyph unicode="y" d="M848 1016h258v-1266q0 -70 -44 -115t-114 -45h-604v246h449q55 0 55 62v249h-37q-68 -176 -291 -176q-76 0 -141.5 24.5t-114.5 76t-76.5 128t-27.5 181.5v635h258v-582q0 -109 51 -169t154 -60q117 0 171 74.5t54 203.5v533z" />
<glyph unicode="z" d="M1071 246v-246h-885v430l639 311v37h-626v238h848v-418l-639 -315v-37h663z" />
<glyph unicode="{" d="M524 1544q0 92 58.5 150.5t150.5 58.5h271v-246h-166q-55 0 -56 -61v-551q0 -70 -44 -115t-115 -45h-13v-37h13q72 0 115.5 -45t43.5 -114v-551q0 -61 56 -62h166v-245h-271q-92 0 -150.5 58t-58.5 150v621q0 59 -55 59h-129v295h129q55 0 55 60v620z" />
<glyph unicode="|" d="M750 -319h-246v2072h246v-2072z" />
<glyph unicode="}" d="M729 924q0 -59 55 -60h129v-295h-129q-55 0 -55 -59v-621q0 -92 -58.5 -150t-150.5 -58h-270v245h166q55 0 55 62v551q0 70 44 114.5t116 44.5h12v37h-12q-72 0 -116 45t-44 115v551q0 61 -55 61h-166v246h270q92 0 150.5 -58.5t58.5 -150.5v-620z" />
<glyph unicode="~" d="M686 770q25 -41 41 -56.5t45 -15.5q20 0 39.5 11.5t40.5 27.5l176 129l143 -190l-247 -189q-35 -29 -81 -50t-102 -21q-72 0 -112.5 24.5t-63.5 59.5q-25 41 -41 56t-45 15q-20 0 -39.5 -11t-40.5 -28l-176 -129l-143 191l248 188q35 29 81 50.5t101 21.5 q72 0 112.5 -24.5t63.5 -59.5z" />
<glyph unicode="&#xa0;" />
<glyph unicode="&#xa1;" d="M762 -409.912v999.938h-270v-999.938h270zM821 858.01q0 40.998 -15 76.9961q-15 35.9971 -42 61.4961q-27 25.498 -62.5 40.9971t-74.5 15.499q-41 0 -76 -15.499t-61.5 -40.9971q-26.5 -25.499 -42 -61.4961q-15.5 -35.998 -15.5 -76.9961q0 -40.9971 15.5 -76.9951 t42 -61.4961t61.5 -40.4971q35 -15 76 -15q39 0 74.5 15q35.5 14.999 62.5 40.4971t42 61.4961t15 76.9951z" />
<glyph unicode="&#xa2;" d="M737 1245q160 -25 266.5 -127t131.5 -254l-230 -53q-12 72 -51 129t-117 80v-606q78 23 117 83t55 126l230 -54q-29 -152 -133.5 -254t-268.5 -129v-129h-196v129q-90 14 -168 55.5t-135.5 107t-90 153.5t-32.5 198v25q0 106 32.5 195.5t90 156t135.5 108.5t168 58v133 h196v-131zM348 707q0 -115 53.5 -188t139.5 -101v596q-86 -31 -139.5 -108t-53.5 -187v-12z" />
<glyph unicode="&#xa3;" d="M569 774h148v-196h-148v-148h447v-221h-803v221h123v148h-123v196h123v123q0 174 97 265t255 91q76 0 141.5 -23.5t111.5 -68.5t72.5 -110.5t26.5 -149.5v-37h-233v41q0 49 -26.5 88t-92.5 39t-92.5 -39t-26.5 -88v-131z" />
<glyph unicode="&#xa4;" d="M115 717q0 76 20.5 145.5t59.5 128.5l-125 125l157 158l125 -125q59 37 128 58.5t147 21.5q76 0 145.5 -21.5t128.5 -58.5l125 125l158 -158l-125 -125q37 -59 58.5 -128.5t21.5 -145.5q0 -78 -21.5 -146.5t-58.5 -128.5l125 -125l-158 -157l-125 125q-59 -39 -129 -59.5 t-145 -20.5q-78 0 -146.5 20.5t-128.5 59.5l-125 -125l-157 157l125 125q-39 59 -59.5 128t-20.5 147zM336 717q0 -61 22.5 -114.5t61.5 -92.5t92 -61.5t115 -22.5q61 0 114.5 22.5t92 61.5t61.5 92t23 115q0 61 -23 114.5t-61.5 92.5t-92 61.5t-114.5 22.5t-114.5 -22.5 t-92.5 -61.5t-61.5 -92.5t-22.5 -114.5z" />
<glyph unicode="&#xa5;" d="M236 799h116l-178 426h275l165 -426h25l166 426h274l-178 -426h117v-197h-262v-61h262v-197h-262v-135h-258v135h-262v197h262v61h-262v197z" />
<glyph unicode="&#xa6;" d="M750 594v-913h-246v913h246zM504 840v913h246v-913h-246z" />
<glyph unicode="&#xa7;" d="M721 1225q0 29 -19.5 47t-66.5 18q-37 0 -55.5 -14t-18.5 -35q0 -29 24.5 -44t110.5 -32q111 -20 170.5 -77.5t59.5 -161.5q0 -33 -8.5 -68t-28.5 -63q10 -18 17 -45t7 -62q0 -104 -72.5 -173t-201.5 -69q-145 0 -220 76t-75 189v12h184v-12q0 -45 31 -69t80 -24 t69.5 18.5t20.5 43.5q0 12 -4 23.5t-16.5 21.5t-38 18.5t-68.5 16.5q-45 8 -88 24.5t-75.5 44t-53 68.5t-20.5 98q0 43 11 77t27 56q-12 25 -19 50.5t-7 62.5q0 106 74.5 163.5t183.5 57.5q66 0 117 -18.5t84.5 -50t51 -74.5t17.5 -90v-12h-184v8zM729 903q4 8 4 21 q0 29 -18.5 48t-77.5 34l-74 16q-6 -10 -6 -25q0 -20 16.5 -39.5t81.5 -35.5z" />
<glyph unicode="&#xa8;" d="M578 1317q0 -41 -15.5 -77t-42 -61.5t-62.5 -41t-75 -15.5q-41 0 -76 15.5t-61.5 41t-42 61.5t-15.5 77t15.5 77t42 61.5t61.5 40.5t76 15q39 0 75 -15t62.5 -40.5t42 -61.5t15.5 -77zM1065 1317q0 -41 -15.5 -77t-42 -61.5t-62.5 -41t-75 -15.5q-41 0 -75.5 15.5t-61 41 t-42 61.5t-15.5 77t15.5 77t42 61.5t61 40.5t75.5 15q39 0 75 -15t62.5 -40.5t42 -61.5t15.5 -77z" />
<glyph unicode="&#xa9;" d="M625 1298q-35 0 -50.5 -20.5t-15.5 -44.5v-189q0 -25 15.5 -45t50.5 -20t50 20.5t15 44.5v33h160v-33q0 -94 -60.5 -153.5t-164.5 -59.5q-100 0 -163 59.5t-63 153.5v189q0 94 61.5 153.5t164.5 59.5q104 0 164.5 -59.5t60.5 -153.5v-33h-160v33q0 25 -15 45t-50 20z M57 1139q0 117 45 221t122 181t181.5 122t221.5 45t221 -45t181 -122t122 -181.5t45 -220.5q0 -117 -45 -221.5t-122 -181.5t-181.5 -122t-220.5 -45q-117 0 -221.5 45t-181.5 122t-122 181.5t-45 221.5zM217 1139q0 -86 32 -161t87 -130t130 -87t161 -32t160.5 32t130 87 t87 130t31.5 161t-31.5 160.5t-87 130t-130 87t-160.5 31.5t-161 -31.5t-130 -87t-87 -130t-32 -160.5z" />
<glyph unicode="&#xaa;" d="M711 913q-20 -37 -59.5 -59.5t-98.5 -22.5q-55 0 -104.5 20.5t-86 59.5t-58 96.5t-21.5 131.5t21.5 130t58 96t87 60.5t107.5 20.5q61 0 96 -19.5t58 -50.5h18v58h164v-396q0 -35 33 -34h41v-160h-156q-37 0 -57.5 19.5t-24.5 49.5h-18zM588 991q61 0 97 40t36 108 t-36 107.5t-97 39.5t-97 -40t-36 -107q0 -68 36 -108t97 -40z" />
<glyph unicode="&#xab;" d="M602.022 0v291l-355.979 198v37l355.979 199v291h-11.999l-503.97 -311v-394l503.97 -311h11.999zM1167.02 0v291l-355.979 198v37l355.979 199v291h-11.999l-503.97 -311v-394l503.97 -311h11.999z" />
<glyph unicode="&#xac;" d="M199 834h856v-502h-234v268h-622v234z" />
<glyph unicode="&#xad;" d="M307 680h639v-234h-639v234z" />
<glyph unicode="&#xae;" d="M57 1139q0 117 45 221t122 181t181.5 122t221.5 45t221 -45t181 -122t122 -181.5t45 -220.5q0 -117 -45 -221.5t-122 -181.5t-181.5 -122t-220.5 -45q-117 0 -221.5 45t-181.5 122t-122 181.5t-45 221.5zM217 1139q0 -86 32 -161t87 -130t130 -87t161 -32t160.5 32 t130 87t87 130t31.5 161t-31.5 160.5t-87 130t-130 87t-160.5 31.5t-161 -31.5t-130 -87t-87 -130t-32 -160.5zM836 844h-160v145q0 23 -13.5 37t-37.5 14h-23v-196h-160v590h217q92 0 140.5 -49.5t48.5 -114.5q0 -109 -82 -142v-18q37 -4 53.5 -28.5t16.5 -53.5v-184z M602 1188h33q53 0 53 49t-53 49h-33v-98z" />
<glyph unicode="&#xaf;" d="M928 1167h-602v209h602v-209z" />
<glyph unicode="&#xb0;" d="M305 1165q0 68 25.5 126.5t68.5 101.5t101.5 68.5t126.5 25.5t126 -25.5t101 -68.5t68.5 -101.5t25.5 -126.5t-25.5 -126t-68.5 -101t-101.5 -68.5t-125.5 -25.5q-68 0 -126.5 25.5t-101.5 68.5t-68.5 101t-25.5 126zM526 1165q0 -41 30 -70.5t71 -29.5t70.5 29.5 t29.5 70.5t-29.5 71t-70.5 30t-71 -30t-30 -71z" />
<glyph unicode="&#xb1;" d="M199 834h311v311h233v-311h312v-234h-312v-268h-233v268h-311v234zM199 233h856v-233h-856v233z" />
<glyph unicode="&#xb2;" d="M846 991v-147h-436v135q0 45 15 79t41 57.5t57.5 37.5t66.5 23q68 16 85 31.5t17 37.5q0 23 -15 38t-44 15q-63 0 -64 -73h-159v12q0 96 61 152.5t170 56.5q96 0 153.5 -55.5t57.5 -128.5q0 -84 -41 -128t-106 -61q-80 -23 -108 -37t-28 -45h277z" />
<glyph unicode="&#xb3;" d="M410 1049h159v-13q0 -29 16.5 -43t45.5 -14t45 14.5t16 42.5q0 61 -69 62h-54v143l95 31v18h-236v144h395v-201l-94 -35v-18q47 -10 85 -47t38 -105q0 -88 -57.5 -142.5t-155.5 -54.5q-117 0 -173 59.5t-56 133.5v25z" />
<glyph unicode="&#xb4;" d="M547 1446h274l-172 -279h-209z" />
<glyph unicode="&#xb5;" d="M842 61h-37q-20 -41 -63.5 -65.5t-114.5 -24.5q-72 0 -115 24.5t-63 65.5h-37v-471h-258v1426h258v-565q0 -51 10 -95.5t35.5 -78t66.5 -53t103 -19.5q61 0 102 19.5t66.5 53t36 77.5t10.5 96v565h258v-1016h-258v61z" />
<glyph unicode="&#xb6;" d="M535 868h-25q-61 0 -115.5 23.5t-94.5 63.5t-62.5 94.5t-22.5 115.5t22.5 115.5t62.5 94.5t94.5 63.5t115.5 23.5h528v-1016h-221v807h-61v-807h-221v422zM535 1077v176h-25q-35 0 -60.5 -21.5t-25.5 -66.5t25.5 -66.5t60.5 -21.5h25z" />
<glyph unicode="&#xb7;" d="M821 717q0 -41 -15 -77t-42 -61.5t-62.5 -41t-74.5 -15.5q-41 0 -76 15.5t-61.5 41t-42 61.5t-15.5 77t15.5 76.5t42 61.5t61.5 41t76 15q39 0 74.5 -15t62.5 -41t42 -61.5t15 -76.5z" />
<glyph unicode="&#xb8;" d="M614 0l-20 -94h24q10 18 33 31.5t62 13.5q86 0 128 -53.5t42 -126.5q0 -96 -64.5 -150.5t-161.5 -54.5q-59 0 -98 11t-74 30l54 139q47 -29 102 -29q31 0 50.5 14.5t19.5 39.5q0 18 -10.5 31.5t-30.5 13.5q-35 0 -41 -29h-199v25l41 188h143z" />
<glyph unicode="&#xb9;" d="M578 991v271h-13l-147 -123h-12v184l147 111h184v-443h148v-147h-467v147h160z" />
<glyph unicode="&#xba;" d="M322 1139q0 76 24.5 133t66.5 96t97 58.5t117 19.5q61 0 116.5 -19.5t97.5 -58.5t66.5 -96.5t24.5 -132.5q0 -76 -24.5 -133.5t-66.5 -96.5t-97.5 -58.5t-116.5 -19.5t-116.5 19.5t-97.5 58.5t-66.5 96.5t-24.5 133.5zM627 991q63 0 98 40t35 108t-35 107.5t-98 39.5 t-98 -40t-35 -107q0 -68 35 -108t98 -40z" />
<glyph unicode="&#xbb;" d="M88 0v291l356 198v37l-356 199v291h12l504 -311v-394l-504 -311h-12zM652 0v291l356 198v37l-356 199v291h12l504 -311v-394l-504 -311h-12z" />
<glyph unicode="&#xbc;" d="M1090 1044l84 -159l-967 -496l-84 160zM281 991v271h-13l-147 -123h-12v184l147 111h184v-443h148v-147h-467v147h160zM829 592h283v-349h86v-143h-86v-98h-160v98h-266v199zM829 262v-19h123v242h-18z" />
<glyph unicode="&#xbd;" d="M277 991v271h-13l-147 -123h-12v184l147 111h184v-443h148v-147h-467v147h160zM1163 149v-147h-436v135q0 45 15 79t41 57.5t57.5 37.5t66.5 23q68 16 85 31.5t17 37.5q0 23 -15 38t-44 15q-63 0 -64 -73h-159v12q0 96 61 152.5t170 56.5q96 0 153.5 -55.5t57.5 -128.5 q0 -84 -41 -128t-106 -61q-80 -23 -108 -37t-28 -45h277zM1085 1044l84 -159l-967 -496l-84 160z" />
<glyph unicode="&#xbe;" d="M1075 1044l84 -159l-967 -496l-84 160zM97 1049h159v-13q0 -29 16.5 -43t45.5 -14t45 14.5t16 42.5q0 61 -69 62h-54v143l95 31v18h-236v144h395v-201l-94 -35v-18q47 -10 85 -47t38 -105q0 -88 -57.5 -142.5t-155.5 -54.5q-117 0 -173 59.5t-56 133.5v25zM815 592h283 v-349h86v-143h-86v-98h-160v98h-266v199zM815 262v-19h123v242h-18z" />
<glyph unicode="&#xbf;" d="M588.041 225.049q-87.9941 0 -137.991 -54.9971q-49.9971 -54.9961 -49.9971 -144.991q0 -85.9941 59.4961 -145.49q59.4961 -59.4971 161.49 -59.4971q54.9961 0 97.9941 19.499q42.9971 19.499 73.9951 52.9971t45.9971 77.4951t14.999 90.9941v85.9951h270.983 v-109.993q0 -91.9951 -33.9971 -177.989q-33.998 -85.9951 -98.4941 -151.491t-159.49 -105.493q-94.9941 -39.998 -215.987 -39.998q-108.993 0 -198.987 35.498q-89.9951 35.498 -154.491 98.9941t-98.9941 148.491q-34.4971 84.9941 -34.4971 183.988v11.999 q0 83.9951 25.498 159.49q25.498 75.4961 72.4951 132.992q46.998 57.4971 116.493 92.4941q69.4961 34.998 155.491 34.998q28.998 0 43.4971 16.499t14.499 44.4971v67.9961h257.984v-175.989q0 -79.9951 -54.4971 -134.491q-54.4961 -54.4971 -134.491 -54.4971h-38.998z M490.047 858.01q0 40.998 15.499 76.9961q15.499 35.9971 41.998 61.4961q26.498 25.498 62.4961 40.9971q35.9971 15.499 74.9951 15.499q40.9971 0 75.4951 -15.499t60.9961 -40.9971q26.499 -25.499 41.998 -61.4961q15.499 -35.998 15.499 -76.9961 q0 -40.9971 -15.499 -76.9951t-41.998 -61.4961q-26.498 -25.498 -61.4961 -40.4971q-34.998 -15 -74.9951 -15q-38.998 0 -74.9951 15q-35.998 14.999 -62.4961 40.4971q-26.499 25.498 -41.998 61.4961t-15.499 76.9951z" />
<glyph unicode="&#xc0;" d="M870 307h-487l-70 -307h-282l342 1434h508l342 -1434h-283zM440 565h371l-166 733h-37zM733 1585h-209l-172 279h275z" />
<glyph unicode="&#xc1;" d="M870 307h-487l-70 -307h-282l342 1434h508l342 -1434h-283zM440 565h371l-166 733h-37zM629 1864h274l-172 -279h-209z" />
<glyph unicode="&#xc2;" d="M870 307h-487l-70 -307h-282l342 1434h508l342 -1434h-283zM440 565h371l-166 733h-37zM727 1585l-88 181h-25l-88 -181h-247l172 279h352l172 -279h-248z" />
<glyph unicode="&#xc3;" d="M870 307h-487l-70 -307h-282l342 1434h508l342 -1434h-283zM440 565h371l-166 733h-37zM659 1829q16 -18 33 -33.5t45 -15.5q29 0 46.5 13.5t33.5 35.5l62 78l157 -125l-114 -147q-37 -47 -80 -68.5t-97 -21.5q-41 0 -78.5 18.5t-72.5 59.5q-16 18 -32.5 33.5t-45.5 15.5 t-46 -13.5t-34 -35.5l-61 -78l-158 125l115 147q39 49 82 69.5t94 20.5q41 0 78.5 -18.5t72.5 -59.5z" />
<glyph unicode="&#xc4;" d="M870 307h-487l-70 -307h-282l342 1434h508l342 -1434h-283zM440 565h371l-166 733h-37zM578 1727q0 -41 -15.5 -77t-42 -61.5t-62.5 -41t-75 -15.5q-41 0 -76 15.5t-61.5 41t-42 61.5t-15.5 77t15.5 77t42 61.5t61.5 40.5t76 15q39 0 75 -15t62.5 -40.5t42 -61.5 t15.5 -77zM1065 1727q0 -41 -15.5 -77t-42 -61.5t-62.5 -41t-75 -15.5q-41 0 -75.5 15.5t-61 41t-42 61.5t-15.5 77t15.5 77t42 61.5t61 40.5t75.5 15q39 0 75 -15t62.5 -40.5t42 -61.5t15.5 -77z" />
<glyph unicode="&#xc5;" d="M870 307h-487l-70 -307h-282l342 1434h508l342 -1434h-283zM440 565h371l-166 733h-37zM406 1794q0 45 17 86t47 71t70 47.5t87 17.5q45 0 86 -17.5t70.5 -47.5t47 -70.5t17.5 -86.5q0 -47 -17.5 -87t-47 -69.5t-70.5 -47t-86 -17.5q-47 0 -87 17.5t-70 47t-47 69.5 t-17 87zM565 1794q0 -27 17.5 -44t44.5 -17t44 17.5t17 43.5q0 27 -17.5 44.5t-43.5 17.5q-27 0 -44.5 -17.5t-17.5 -44.5z" />
<glyph unicode="&#xc6;" d="M586 307h-234l-69 -307h-283l342 1434h866v-258h-352v-328h340v-258h-340v-332h365v-258h-635v307zM410 565h176v611h-37z" />
<glyph unicode="&#xc7;" d="M631 217q78 0 128 23.5t77.5 63.5t38 92.5t10.5 107.5v37h270v-37q0 -240 -117.5 -376t-341.5 -155l-14 -67h25q10 18 32.5 31.5t61.5 13.5q86 0 128 -53.5t42 -126.5q0 -96 -64.5 -150.5t-161.5 -54.5q-59 0 -98 11t-74 30l54 139q47 -29 102 -29q31 0 50.5 14.5 t19.5 39.5q0 18 -10.5 31.5t-30.5 13.5q-35 0 -41 -29h-199v25l35 163q-213 23 -334 170.5t-121 411.5v320q0 137 37 246.5t106.5 184t168 114.5t221.5 40q127 0 225 -36.5t164.5 -106.5t100.5 -168t34 -221v-37h-270v37q0 51 -12.5 102t-41 92t-77.5 67t-123 26 q-68 0 -117 -26t-82 -70t-48 -102t-15 -122v-360q0 -70 14 -128.5t45 -101.5t81 -66.5t122 -23.5z" />
<glyph unicode="&#xc8;" d="M168 1434h905v-258h-635v-328h611v-258h-611v-332h660v-258h-930v1434zM750 1585h-209l-172 279h275z" />
<glyph unicode="&#xc9;" d="M168 1434h905v-258h-635v-328h611v-258h-611v-332h660v-258h-930v1434zM633 1864h274l-172 -279h-209z" />
<glyph unicode="&#xca;" d="M168 1434h905v-258h-635v-328h611v-258h-611v-332h660v-258h-930v1434zM723 1585l-88 181h-25l-88 -181h-247l172 279h352l172 -279h-248z" />
<glyph unicode="&#xcb;" d="M168 1434h905v-258h-635v-328h611v-258h-611v-332h660v-258h-930v1434zM574 1727q0 -41 -15.5 -77t-42 -61.5t-62.5 -41t-75 -15.5q-41 0 -76 15.5t-61.5 41t-42 61.5t-15.5 77t15.5 77t42 61.5t61.5 40.5t76 15q39 0 75 -15t62.5 -40.5t42 -61.5t15.5 -77zM1061 1727 q0 -41 -15.5 -77t-42 -61.5t-62.5 -41t-75 -15.5q-41 0 -75.5 15.5t-61 41t-42 61.5t-15.5 77t15.5 77t42 61.5t61 40.5t75.5 15q39 0 75 -15t62.5 -40.5t42 -61.5t15.5 -77z" />
<glyph unicode="&#xcc;" d="M147 1434h959v-258h-344v-918h344v-258h-959v258h345v918h-345v258zM719 1585h-209l-172 279h275z" />
<glyph unicode="&#xcd;" d="M147 1434h959v-258h-344v-918h344v-258h-959v258h345v918h-345v258zM631 1864h274l-172 -279h-209z" />
<glyph unicode="&#xce;" d="M147 1434h959v-258h-344v-918h344v-258h-959v258h345v918h-345v258zM727 1585l-88 181h-25l-88 -181h-247l172 279h352l172 -279h-248z" />
<glyph unicode="&#xcf;" d="M147 1434h959v-258h-344v-918h344v-258h-959v258h345v918h-345v258zM578 1727q0 -41 -15.5 -77t-42 -61.5t-62.5 -41t-75 -15.5q-41 0 -76 15.5t-61.5 41t-42 61.5t-15.5 77t15.5 77t42 61.5t61.5 40.5t76 15q39 0 75 -15t62.5 -40.5t42 -61.5t15.5 -77zM1065 1727 q0 -41 -15.5 -77t-42 -61.5t-62.5 -41t-75 -15.5q-41 0 -75.5 15.5t-61 41t-42 61.5t-15.5 77t15.5 77t42 61.5t61 40.5t75.5 15q39 0 75 -15t62.5 -40.5t42 -61.5t15.5 -77z" />
<glyph unicode="&#xd0;" d="M94 840h135v336h-135v258h520q266 0 395.5 -124t129.5 -384v-418q0 -260 -129 -384t-396 -124h-520v258h135v336h-135v246zM614 258q141 0 197.5 66.5t56.5 207.5v394q0 123 -56 186.5t-198 63.5h-114v-336h200v-246h-200v-336h114z" />
<glyph unicode="&#xd1;" d="M821 135h37v1299h270v-1434h-528l-168 1298h-37v-1298h-270v1434h528zM671 1824q16 -18 33 -33.5t45 -15.5q29 0 46.5 13.5t33.5 35.5l62 78l157 -125l-114 -147q-37 -47 -80 -68.5t-97 -21.5q-41 0 -78.5 18.5t-72.5 59.5q-16 18 -32.5 33.5t-45.5 15.5t-46 -13.5 t-34 -35.5l-61 -78l-158 125l115 147q39 49 82 69.5t94 20.5q41 0 78.5 -18.5t72.5 -59.5z" />
<glyph unicode="&#xd2;" d="M98 877q0 279 140.5 432t388.5 153t388 -153.5t140 -431.5v-320q0 -287 -140.5 -436.5t-387.5 -149.5q-248 0 -388.5 149.5t-140.5 436.5v320zM627 217q74 0 123 23.5t79.5 66.5t43 102.5t12.5 131.5v352q0 68 -14.5 127t-45 102t-80 69t-118.5 26q-70 0 -119 -26 t-80 -69t-45 -102t-14 -127v-352q0 -72 12 -131.5t43 -102.5t80 -66.5t123 -23.5zM735 1585h-209l-172 279h275z" />
<glyph unicode="&#xd3;" d="M98 877q0 279 140.5 432t388.5 153t388 -153.5t140 -431.5v-320q0 -287 -140.5 -436.5t-387.5 -149.5q-248 0 -388.5 149.5t-140.5 436.5v320zM627 217q74 0 123 23.5t79.5 66.5t43 102.5t12.5 131.5v352q0 68 -14.5 127t-45 102t-80 69t-118.5 26q-70 0 -119 -26 t-80 -69t-45 -102t-14 -127v-352q0 -72 12 -131.5t43 -102.5t80 -66.5t123 -23.5zM627 1864h274l-172 -279h-209z" />
<glyph unicode="&#xd4;" d="M98 877q0 279 140.5 432t388.5 153t388 -153.5t140 -431.5v-320q0 -287 -140.5 -436.5t-387.5 -149.5q-248 0 -388.5 149.5t-140.5 436.5v320zM627 217q74 0 123 23.5t79.5 66.5t43 102.5t12.5 131.5v352q0 68 -14.5 127t-45 102t-80 69t-118.5 26q-70 0 -119 -26 t-80 -69t-45 -102t-14 -127v-352q0 -72 12 -131.5t43 -102.5t80 -66.5t123 -23.5zM727 1585l-88 181h-25l-88 -181h-247l172 279h352l172 -279h-248z" />
<glyph unicode="&#xd5;" d="M98 877q0 279 140.5 432t388.5 153t388 -153.5t140 -431.5v-320q0 -287 -140.5 -436.5t-387.5 -149.5q-248 0 -388.5 149.5t-140.5 436.5v320zM627 217q74 0 123 23.5t79.5 66.5t43 102.5t12.5 131.5v352q0 68 -14.5 127t-45 102t-80 69t-118.5 26q-70 0 -119 -26 t-80 -69t-45 -102t-14 -127v-352q0 -72 12 -131.5t43 -102.5t80 -66.5t123 -23.5zM659 1829q16 -18 33 -33.5t45 -15.5q29 0 46.5 13.5t33.5 35.5l62 78l157 -125l-114 -147q-37 -47 -80 -68.5t-97 -21.5q-41 0 -78.5 18.5t-72.5 59.5q-16 18 -32.5 33.5t-45.5 15.5 t-46 -13.5t-34 -35.5l-61 -78l-158 125l115 147q39 49 82 69.5t94 20.5q41 0 78.5 -18.5t72.5 -59.5z" />
<glyph unicode="&#xd6;" d="M98 877q0 279 140.5 432t388.5 153t388 -153.5t140 -431.5v-320q0 -287 -140.5 -436.5t-387.5 -149.5q-248 0 -388.5 149.5t-140.5 436.5v320zM627 217q74 0 123 23.5t79.5 66.5t43 102.5t12.5 131.5v352q0 68 -14.5 127t-45 102t-80 69t-118.5 26q-70 0 -119 -26 t-80 -69t-45 -102t-14 -127v-352q0 -72 12 -131.5t43 -102.5t80 -66.5t123 -23.5zM578 1727q0 -41 -15.5 -77t-42 -61.5t-62.5 -41t-75 -15.5q-41 0 -76 15.5t-61.5 41t-42 61.5t-15.5 77t15.5 77t42 61.5t61.5 40.5t76 15q39 0 75 -15t62.5 -40.5t42 -61.5t15.5 -77z M1065 1727q0 -41 -15.5 -77t-42 -61.5t-62.5 -41t-75 -15.5q-41 0 -75.5 15.5t-61 41t-42 61.5t-15.5 77t15.5 77t42 61.5t61 40.5t75.5 15q39 0 75 -15t62.5 -40.5t42 -61.5t15.5 -77z" />
<glyph unicode="&#xd7;" d="M1065 985l-270 -268l270 -268l-166 -166l-272 268l-273 -268l-166 166l271 268l-271 268l166 166l273 -268l272 268z" />
<glyph unicode="&#xd8;" d="M98 877q0 279 140.5 432t388.5 153q63 0 123 -12l49 149l223 -69l-57 -176q92 -76 141 -196t49 -281v-320q0 -287 -140.5 -436.5t-387.5 -149.5q-66 0 -113 9l-55 -170l-226 69l62 191q-96 72 -146.5 193.5t-50.5 293.5v320zM369 541q0 -51 5 -94.5t19 -79.5l279 845 q-10 2 -22.5 3.5t-22.5 1.5q-70 0 -119 -26t-80 -69t-45 -102t-14 -127v-352zM627 217q74 0 123 23.5t79.5 66.5t43 102.5t12.5 131.5v352q0 41 -5.5 79t-17.5 72l-270 -827h35z" />
<glyph unicode="&#xd9;" d="M1143 1434v-938q0 -246 -130 -385.5t-386 -139.5t-386 139.5t-130 385.5v938h270v-938q0 -127 59.5 -199t186.5 -72t186 72t59 199v938h271zM731 1585h-209l-172 279h275z" />
<glyph unicode="&#xda;" d="M1143 1434v-938q0 -246 -130 -385.5t-386 -139.5t-386 139.5t-130 385.5v938h270v-938q0 -127 59.5 -199t186.5 -72t186 72t59 199v938h271zM631 1864h274l-172 -279h-209z" />
<glyph unicode="&#xdb;" d="M1143 1434v-938q0 -246 -130 -385.5t-386 -139.5t-386 139.5t-130 385.5v938h270v-938q0 -127 59.5 -199t186.5 -72t186 72t59 199v938h271zM727 1585l-88 181h-25l-88 -181h-247l172 279h352l172 -279h-248z" />
<glyph unicode="&#xdc;" d="M1143 1434v-938q0 -246 -130 -385.5t-386 -139.5t-386 139.5t-130 385.5v938h270v-938q0 -127 59.5 -199t186.5 -72t186 72t59 199v938h271zM578 1727q0 -41 -15.5 -77t-42 -61.5t-62.5 -41t-75 -15.5q-41 0 -76 15.5t-61.5 41t-42 61.5t-15.5 77t15.5 77t42 61.5 t61.5 40.5t76 15q39 0 75 -15t62.5 -40.5t42 -61.5t15.5 -77zM1065 1727q0 -41 -15.5 -77t-42 -61.5t-62.5 -41t-75 -15.5q-41 0 -75.5 15.5t-61 41t-42 61.5t-15.5 77t15.5 77t42 61.5t61 40.5t75.5 15q39 0 75 -15t62.5 -40.5t42 -61.5t15.5 -77z" />
<glyph unicode="&#xdd;" d="M492 504h-62l-412 930h295l295 -684h37l295 684h295l-412 -930h-61v-504h-270v504zM649 1864h274l-172 -279h-209z" />
<glyph unicode="&#xde;" d="M414 270v-270h-271v1434h271v-271h291q111 0 192.5 -35.5t135.5 -94t82 -133.5t28 -152v-50q0 -80 -28 -156.5t-82 -137t-136 -97.5t-192 -37h-291zM414 528h264q90 0 142 49.5t52 127.5v24q0 78 -52 127t-142 49h-264v-377z" />
<glyph unicode="&#xdf;" d="M717 709h90q72 0 141.5 -20.5t123.5 -65.5t87 -115t33 -168v-12q0 -78 -24.5 -142.5t-71.5 -112.5t-117 -75t-160 -27q-82 0 -144.5 24.5t-105.5 66.5t-67.5 95.5t-30.5 112.5l250 49q4 -43 28.5 -72.5t77.5 -29.5t80 33t27 86q0 80 -52.5 115.5t-144.5 35.5h-192v467h78 q61 0 102 31t41 96q0 59 -45 97.5t-119 38.5q-86 0 -139 -51.5t-53 -149.5v-1016h-258v770h-123v246h123v37q0 100 35.5 177t96 129t140.5 77.5t170 25.5q88 0 167 -25.5t137 -74.5t92 -117.5t34 -154.5v-13q0 -80 -23.5 -140t-65.5 -101t-98.5 -64.5t-119.5 -26.5v-36z" />
<glyph unicode="&#xe0;" d="M817 147q-41 -96 -114.5 -136t-172.5 -40q-92 0 -173 35t-142 102.5t-97 164t-36 219.5v32q0 121 35 217.5t94 164t138 103t169 35.5q109 0 175.5 -36.5t105.5 -114.5h37v123h258v-709q0 -61 55 -61h39v-246h-176q-70 0 -114 41t-44 106h-37zM588 217q113 0 180.5 75 t67.5 204v24q0 129 -68 204t-180 75q-113 0 -180.5 -75t-67.5 -204v-24q0 -129 67.5 -204t180.5 -75zM625 1167h-209l-172 279h275z" />
<glyph unicode="&#xe1;" d="M817 147q-41 -96 -114.5 -136t-172.5 -40q-92 0 -173 35t-142 102.5t-97 164t-36 219.5v32q0 121 35 217.5t94 164t138 103t169 35.5q109 0 175.5 -36.5t105.5 -114.5h37v123h258v-709q0 -61 55 -61h39v-246h-176q-70 0 -114 41t-44 106h-37zM588 217q113 0 180.5 75 t67.5 204v24q0 129 -68 204t-180 75q-113 0 -180.5 -75t-67.5 -204v-24q0 -129 67.5 -204t180.5 -75zM522 1446h274l-172 -279h-209z" />
<glyph unicode="&#xe2;" d="M817 147q-41 -96 -114.5 -136t-172.5 -40q-92 0 -173 35t-142 102.5t-97 164t-36 219.5v32q0 121 35 217.5t94 164t138 103t169 35.5q109 0 175.5 -36.5t105.5 -114.5h37v123h258v-709q0 -61 55 -61h39v-246h-176q-70 0 -114 41t-44 106h-37zM588 217q113 0 180.5 75 t67.5 204v24q0 129 -68 204t-180 75q-113 0 -180.5 -75t-67.5 -204v-24q0 -129 67.5 -204t180.5 -75zM621 1167l-88 181h-25l-88 -181h-247l172 279h352l172 -279h-248z" />
<glyph unicode="&#xe3;" d="M817 147q-41 -96 -114.5 -136t-172.5 -40q-92 0 -173 35t-142 102.5t-97 164t-36 219.5v32q0 121 35 217.5t94 164t138 103t169 35.5q109 0 175.5 -36.5t105.5 -114.5h37v123h258v-709q0 -61 55 -61h39v-246h-176q-70 0 -114 41t-44 106h-37zM588 217q113 0 180.5 75 t67.5 204v24q0 129 -68 204t-180 75q-113 0 -180.5 -75t-67.5 -204v-24q0 -129 67.5 -204t180.5 -75zM663 1413q16 -18 33 -33.5t45 -15.5q29 0 46.5 13.5t33.5 35.5l62 78l157 -125l-114 -147q-37 -47 -80 -68.5t-97 -21.5q-41 0 -78.5 18.5t-72.5 59.5q-16 18 -32.5 33.5 t-45.5 15.5t-46 -13.5t-34 -35.5l-61 -78l-158 125l115 147q39 49 82 69.5t94 20.5q41 0 78.5 -18.5t72.5 -59.5z" />
<glyph unicode="&#xe4;" d="M817 147q-41 -96 -114.5 -136t-172.5 -40q-92 0 -173 35t-142 102.5t-97 164t-36 219.5v32q0 121 35 217.5t94 164t138 103t169 35.5q109 0 175.5 -36.5t105.5 -114.5h37v123h258v-709q0 -61 55 -61h39v-246h-176q-70 0 -114 41t-44 106h-37zM588 217q113 0 180.5 75 t67.5 204v24q0 129 -68 204t-180 75q-113 0 -180.5 -75t-67.5 -204v-24q0 -129 67.5 -204t180.5 -75zM541 1317q0 -41 -15.5 -77t-42 -61.5t-62.5 -41t-75 -15.5q-41 0 -76 15.5t-61.5 41t-42 61.5t-15.5 77t15.5 77t42 61.5t61.5 40.5t76 15q39 0 75 -15t62.5 -40.5 t42 -61.5t15.5 -77zM1028 1317q0 -41 -15.5 -77t-42 -61.5t-62.5 -41t-75 -15.5q-41 0 -75.5 15.5t-61 41t-42 61.5t-15.5 77t15.5 77t42 61.5t61 40.5t75.5 15q39 0 75 -15t62.5 -40.5t42 -61.5t15.5 -77z" />
<glyph unicode="&#xe5;" d="M817 147q-41 -96 -114.5 -136t-172.5 -40q-92 0 -173 35t-142 102.5t-97 164t-36 219.5v32q0 121 35 217.5t94 164t138 103t169 35.5q109 0 175.5 -36.5t105.5 -114.5h37v123h258v-709q0 -61 55 -61h39v-246h-176q-70 0 -114 41t-44 106h-37zM588 217q113 0 180.5 75 t67.5 204v24q0 129 -68 204t-180 75q-113 0 -180.5 -75t-67.5 -204v-24q0 -129 67.5 -204t180.5 -75zM300 1384q0 45 17 86t47 71t70 47.5t87 17.5q45 0 86 -17.5t70.5 -47.5t47 -70.5t17.5 -86.5q0 -47 -17.5 -87t-47 -69.5t-70.5 -47t-86 -17.5q-47 0 -87 17.5t-70 47 t-47 69.5t-17 87zM459 1384q0 -27 17.5 -44t44.5 -17t44 17.5t17 43.5q0 27 -17.5 44.5t-43.5 17.5q-27 0 -44.5 -17.5t-17.5 -44.5z" />
<glyph unicode="&#xe6;" d="M373 301q0 -41 26.5 -62.5t67.5 -21.5h25v168h-25q-41 0 -67.5 -21.5t-26.5 -62.5zM885 631q0 68 -37 108.5t-98 51.5v-160h135zM610 1044q127 0 226.5 -36.5t167 -102t103.5 -154.5t36 -194v-172h-393v-160q49 0 89 21.5t58 64.5l209 -131q-61 -111 -176 -160t-289 -49 h-59q-100 0 -185.5 18.5t-148 58.5t-98 102.5t-35.5 148.5v25q0 72 28.5 129t77.5 97t113.5 60.5t136.5 20.5h21v160q-41 0 -81 -29t-63 -70l-168 176q68 86 172 131t258 45z" />
<glyph unicode="&#xe7;" d="M1151 373q-33 -168 -146.5 -274.5t-306.5 -123.5l-14 -69h25q10 18 32.5 31.5t61.5 13.5q86 0 128 -53.5t42 -126.5q0 -96 -64.5 -150.5t-160.5 -54.5q-59 0 -98.5 11t-74.5 30l54 139q47 -29 102 -29q31 0 50.5 14.5t19.5 39.5q0 18 -10.5 31.5t-30.5 13.5 q-35 0 -41 -29h-199v25l35 165q-96 12 -179 51.5t-142.5 104t-93.5 154.5t-34 200v25q0 123 41 221t114 168t170 106.5t208 36.5q213 0 345 -110.5t167 -290.5l-254 -65q-12 90 -77.5 155.5t-184.5 65.5q-55 0 -104.5 -20.5t-86 -58.5t-58 -92.5t-21.5 -121.5v-12 q0 -68 21.5 -120t58 -87t86 -52.5t104.5 -17.5q119 0 181.5 59.5t80.5 159.5z" />
<glyph unicode="&#xe8;" d="M387 424q2 -45 21.5 -83t53.5 -65.5t78 -43t93 -15.5q96 0 147 34t74 81l221 -123q-18 -39 -51 -81t-85 -77t-127 -57.5t-175 -22.5q-115 0 -209 37t-162.5 106.5t-106.5 170t-38 227.5v12q0 117 40 213.5t109.5 164t162.5 105t200 37.5q131 0 225 -46t155.5 -116.5 t90.5 -155.5t29 -165v-137h-746zM631 811q-98 0 -159.5 -50t-80.5 -116h479q-12 72 -76.5 119t-162.5 47zM741 1167h-209l-172 279h275z" />
<glyph unicode="&#xe9;" d="M387 424q2 -45 21.5 -83t53.5 -65.5t78 -43t93 -15.5q96 0 147 34t74 81l221 -123q-18 -39 -51 -81t-85 -77t-127 -57.5t-175 -22.5q-115 0 -209 37t-162.5 106.5t-106.5 170t-38 227.5v12q0 117 40 213.5t109.5 164t162.5 105t200 37.5q131 0 225 -46t155.5 -116.5 t90.5 -155.5t29 -165v-137h-746zM631 811q-98 0 -159.5 -50t-80.5 -116h479q-12 72 -76.5 119t-162.5 47zM637 1446h274l-172 -279h-209z" />
<glyph unicode="&#xea;" d="M387 424q2 -45 21.5 -83t53.5 -65.5t78 -43t93 -15.5q96 0 147 34t74 81l221 -123q-18 -39 -51 -81t-85 -77t-127 -57.5t-175 -22.5q-115 0 -209 37t-162.5 106.5t-106.5 170t-38 227.5v12q0 117 40 213.5t109.5 164t162.5 105t200 37.5q131 0 225 -46t155.5 -116.5 t90.5 -155.5t29 -165v-137h-746zM631 811q-98 0 -159.5 -50t-80.5 -116h479q-12 72 -76.5 119t-162.5 47zM735 1167l-88 181h-25l-88 -181h-247l172 279h352l172 -279h-248z" />
<glyph unicode="&#xeb;" d="M387 424q2 -45 21.5 -83t53.5 -65.5t78 -43t93 -15.5q96 0 147 34t74 81l221 -123q-18 -39 -51 -81t-85 -77t-127 -57.5t-175 -22.5q-115 0 -209 37t-162.5 106.5t-106.5 170t-38 227.5v12q0 117 40 213.5t109.5 164t162.5 105t200 37.5q131 0 225 -46t155.5 -116.5 t90.5 -155.5t29 -165v-137h-746zM631 811q-98 0 -159.5 -50t-80.5 -116h479q-12 72 -76.5 119t-162.5 47zM586 1317q0 -41 -15.5 -77t-42 -61.5t-62.5 -41t-75 -15.5q-41 0 -76 15.5t-61.5 41t-42 61.5t-15.5 77t15.5 77t42 61.5t61.5 40.5t76 15q39 0 75 -15t62.5 -40.5 t42 -61.5t15.5 -77zM1073 1317q0 -41 -15.5 -77t-42 -61.5t-62.5 -41t-75 -15.5q-41 0 -75.5 15.5t-61 41t-42 61.5t-15.5 77t15.5 77t42 61.5t61 40.5t75.5 15q39 0 75 -15t62.5 -40.5t42 -61.5t15.5 -77z" />
<glyph unicode="&#xec;" d="M178 246h344v524h-319v246h577v-770h295v-246h-897v246zM752 1167h-209l-172 279h275z" />
<glyph unicode="&#xed;" d="M178 246h344v524h-319v246h577v-770h295v-246h-897v246zM653 1446h274l-172 -279h-209z" />
<glyph unicode="&#xee;" d="M178 246h344v524h-319v246h577v-770h295v-246h-897v246zM752 1167l-88 181h-25l-88 -181h-247l172 279h352l172 -279h-248z" />
<glyph unicode="&#xef;" d="M178 246h344v524h-319v246h577v-770h295v-246h-897v246zM609 1317q0 -41 -15.5 -77t-42 -61.5t-62.5 -41t-75 -15.5q-41 0 -76 15.5t-61.5 41t-42 61.5t-15.5 77t15.5 77t42 61.5t61.5 40.5t76 15q39 0 75 -15t62.5 -40.5t42 -61.5t15.5 -77zM1096 1317q0 -41 -15.5 -77 t-42 -61.5t-62.5 -41t-75 -15.5q-41 0 -75.5 15.5t-61 41t-42 61.5t-15.5 77t15.5 77t42 61.5t61 40.5t75.5 15q39 0 75 -15t62.5 -40.5t42 -61.5t15.5 -77z" />
<glyph unicode="&#xf0;" d="M733 1481l-26 -86q119 -57 204.5 -140.5t140 -185.5t80 -222t25.5 -251q0 -156 -41 -272.5t-112.5 -195.5t-171 -118t-216.5 -39q-106 0 -200 36t-165 103.5t-113 165t-42 220.5v24q0 125 37 222.5t99.5 165t143.5 102t171 34.5q96 0 154.5 -22.5t99.5 -71.5h37 q-29 72 -80 125t-123 92l-25 -77l-200 59l26 86q-33 8 -66.5 13t-68.5 9l41 234q43 -4 84 -11t82 -18l24 78zM618 217q119 0 193 75t74 228q0 129 -74 204t-193 75t-191.5 -78t-72.5 -207v-12q0 -135 72.5 -210t191.5 -75z" />
<glyph unicode="&#xf1;" d="M418 0h-258v1016h258v-152h37q35 86 112.5 133t182.5 47q74 0 138 -23.5t113.5 -72.5t77 -124.5t27.5 -180.5v-643h-258v578q0 109 -52.5 171t-150.5 62q-115 0 -171 -77t-56 -206v-528zM663 1413q16 -18 33 -33.5t45 -15.5q29 0 46.5 13.5t33.5 35.5l62 78l157 -125 l-114 -147q-37 -47 -80 -68.5t-97 -21.5q-41 0 -78.5 18.5t-72.5 59.5q-16 18 -32.5 33.5t-45.5 15.5t-46 -13.5t-34 -35.5l-61 -78l-158 125l115 147q39 49 82 69.5t94 20.5q41 0 78.5 -18.5t72.5 -59.5z" />
<glyph unicode="&#xf2;" d="M1155 496q0 -127 -43 -224.5t-116.5 -164t-169 -101.5t-199.5 -35t-199.5 35t-169.5 101.5t-117 164t-43 224.5v24q0 125 43 222.5t117 165t169 102t200 34.5q104 0 199.5 -34.5t169 -102t116.5 -165t43 -222.5v-24zM627 217q55 0 104 18.5t86 53.5t58.5 85t21.5 113v41 q0 63 -21.5 113.5t-58.5 85.5t-86 53.5t-104 18.5t-104.5 -18.5t-86.5 -53.5t-58.5 -85t-21.5 -114v-41q0 -63 21.5 -113t58.5 -85t86.5 -53.5t104.5 -18.5zM733 1167h-209l-172 279h275z" />
<glyph unicode="&#xf3;" d="M1155 496q0 -127 -43 -224.5t-116.5 -164t-169 -101.5t-199.5 -35t-199.5 35t-169.5 101.5t-117 164t-43 224.5v24q0 125 43 222.5t117 165t169 102t200 34.5q104 0 199.5 -34.5t169 -102t116.5 -165t43 -222.5v-24zM627 217q55 0 104 18.5t86 53.5t58.5 85t21.5 113v41 q0 63 -21.5 113.5t-58.5 85.5t-86 53.5t-104 18.5t-104.5 -18.5t-86.5 -53.5t-58.5 -85t-21.5 -114v-41q0 -63 21.5 -113t58.5 -85t86.5 -53.5t104.5 -18.5zM633 1446h274l-172 -279h-209z" />
<glyph unicode="&#xf4;" d="M1155 496q0 -127 -43 -224.5t-116.5 -164t-169 -101.5t-199.5 -35t-199.5 35t-169.5 101.5t-117 164t-43 224.5v24q0 125 43 222.5t117 165t169 102t200 34.5q104 0 199.5 -34.5t169 -102t116.5 -165t43 -222.5v-24zM627 217q55 0 104 18.5t86 53.5t58.5 85t21.5 113v41 q0 63 -21.5 113.5t-58.5 85.5t-86 53.5t-104 18.5t-104.5 -18.5t-86.5 -53.5t-58.5 -85t-21.5 -114v-41q0 -63 21.5 -113t58.5 -85t86.5 -53.5t104.5 -18.5zM727 1167l-88 181h-25l-88 -181h-247l172 279h352l172 -279h-248z" />
<glyph unicode="&#xf5;" d="M1155 496q0 -127 -43 -224.5t-116.5 -164t-169 -101.5t-199.5 -35t-199.5 35t-169.5 101.5t-117 164t-43 224.5v24q0 125 43 222.5t117 165t169 102t200 34.5q104 0 199.5 -34.5t169 -102t116.5 -165t43 -222.5v-24zM627 217q55 0 104 18.5t86 53.5t58.5 85t21.5 113v41 q0 63 -21.5 113.5t-58.5 85.5t-86 53.5t-104 18.5t-104.5 -18.5t-86.5 -53.5t-58.5 -85t-21.5 -114v-41q0 -63 21.5 -113t58.5 -85t86.5 -53.5t104.5 -18.5zM659 1413q16 -18 33 -33.5t45 -15.5q29 0 46.5 13.5t33.5 35.5l62 78l157 -125l-114 -147q-37 -47 -80 -68.5 t-97 -21.5q-41 0 -78.5 18.5t-72.5 59.5q-16 18 -32.5 33.5t-45.5 15.5t-46 -13.5t-34 -35.5l-61 -78l-158 125l115 147q39 49 82 69.5t94 20.5q41 0 78.5 -18.5t72.5 -59.5z" />
<glyph unicode="&#xf6;" d="M1155 496q0 -127 -43 -224.5t-116.5 -164t-169 -101.5t-199.5 -35t-199.5 35t-169.5 101.5t-117 164t-43 224.5v24q0 125 43 222.5t117 165t169 102t200 34.5q104 0 199.5 -34.5t169 -102t116.5 -165t43 -222.5v-24zM627 217q55 0 104 18.5t86 53.5t58.5 85t21.5 113v41 q0 63 -21.5 113.5t-58.5 85.5t-86 53.5t-104 18.5t-104.5 -18.5t-86.5 -53.5t-58.5 -85t-21.5 -114v-41q0 -63 21.5 -113t58.5 -85t86.5 -53.5t104.5 -18.5zM578 1317q0 -41 -15.5 -77t-42 -61.5t-62.5 -41t-75 -15.5q-41 0 -76 15.5t-61.5 41t-42 61.5t-15.5 77t15.5 77 t42 61.5t61.5 40.5t76 15q39 0 75 -15t62.5 -40.5t42 -61.5t15.5 -77zM1065 1317q0 -41 -15.5 -77t-42 -61.5t-62.5 -41t-75 -15.5q-41 0 -75.5 15.5t-61 41t-42 61.5t-15.5 77t15.5 77t42 61.5t61 40.5t75.5 15q39 0 75 -15t62.5 -40.5t42 -61.5t15.5 -77z" />
<glyph unicode="&#xf7;" d="M199 834h856v-234h-856v234zM803 326q0 -37 -14.5 -69t-38 -56.5t-55 -37.5t-68.5 -13t-69 13t-55.5 37.5t-37.5 56.5t-14 69t14 68.5t37.5 56t55.5 38t69 13.5t68.5 -13.5t55 -38t38 -56t14.5 -68.5zM803 1108q0 -37 -14.5 -68.5t-38 -56.5t-55 -38t-68.5 -13t-69 13 t-55.5 38t-37.5 56.5t-14 68.5t14 68.5t37.5 56t55.5 38t69 13.5t68.5 -13.5t55 -38t38 -56t14.5 -68.5z" />
<glyph unicode="&#xf8;" d="M1155 496q0 -127 -43 -224.5t-116.5 -164t-169 -101.5t-199.5 -35q-12 0 -25.5 1t-26.5 1l-38 -123l-226 70l39 121q-111 61 -181.5 176t-70.5 279v24q0 125 43 222.5t117 165t169 102t200 34.5h27.5t25.5 -2l39 115l223 -70l-39 -114q111 -63 181.5 -178t70.5 -275v-24z M356 487q0 -63 21.5 -112t56.5 -84l166 506q-104 -8 -174 -79t-70 -190v-41zM897 528q0 119 -74 193l-166 -502q102 10 171 80t69 188v41z" />
<glyph unicode="&#xf9;" d="M848 1016h258v-1016h-258v147h-37q-68 -176 -291 -176q-76 0 -141.5 24.5t-114.5 76t-76.5 128t-27.5 181.5v635h258v-582q0 -109 51 -169t154 -60q117 0 171 74.5t54 203.5v533zM727 1167h-209l-172 279h275z" />
<glyph unicode="&#xfa;" d="M848 1016h258v-1016h-258v147h-37q-68 -176 -291 -176q-76 0 -141.5 24.5t-114.5 76t-76.5 128t-27.5 181.5v635h258v-582q0 -109 51 -169t154 -60q117 0 171 74.5t54 203.5v533zM639 1446h274l-172 -279h-209z" />
<glyph unicode="&#xfb;" d="M848 1016h258v-1016h-258v147h-37q-68 -176 -291 -176q-76 0 -141.5 24.5t-114.5 76t-76.5 128t-27.5 181.5v635h258v-582q0 -109 51 -169t154 -60q117 0 171 74.5t54 203.5v533zM725 1167l-88 181h-25l-88 -181h-247l172 279h352l172 -279h-248z" />
<glyph unicode="&#xfc;" d="M848 1016h258v-1016h-258v147h-37q-68 -176 -291 -176q-76 0 -141.5 24.5t-114.5 76t-76.5 128t-27.5 181.5v635h258v-582q0 -109 51 -169t154 -60q117 0 171 74.5t54 203.5v533zM584 1317q0 -41 -15.5 -77t-42 -61.5t-62.5 -41t-75 -15.5q-41 0 -76 15.5t-61.5 41 t-42 61.5t-15.5 77t15.5 77t42 61.5t61.5 40.5t76 15q39 0 75 -15t62.5 -40.5t42 -61.5t15.5 -77zM1071 1317q0 -41 -15.5 -77t-42 -61.5t-62.5 -41t-75 -15.5q-41 0 -75.5 15.5t-61 41t-42 61.5t-15.5 77t15.5 77t42 61.5t61 40.5t75.5 15q39 0 75 -15t62.5 -40.5t42 -61.5 t15.5 -77z" />
<glyph unicode="&#xfd;" d="M848 1016h258v-1266q0 -70 -44 -115t-114 -45h-604v246h449q55 0 55 62v249h-37q-68 -176 -291 -176q-76 0 -141.5 24.5t-114.5 76t-76.5 128t-27.5 181.5v635h258v-582q0 -109 51 -169t154 -60q117 0 171 74.5t54 203.5v533zM639 1446h274l-172 -279h-209z" />
<glyph unicode="&#xfe;" d="M627 217q121 0 195.5 75t74.5 204v24q0 129 -74.5 204t-195.5 75t-196 -77t-75 -202v-24q0 -125 75 -202t196 -77zM356 -434h-258v1868h258v-566h37q41 84 119 130t199 46q90 0 171 -34.5t141 -101t96 -163t36 -219.5v-37q0 -125 -35 -221t-94 -162.5t-140 -100.5 t-175 -34q-70 0 -121 14.5t-89 39t-63.5 56.5t-44.5 66h-37v-581z" />
<glyph unicode="&#xff;" d="M848 1016h258v-1266q0 -70 -44 -115t-114 -45h-604v246h449q55 0 55 62v249h-37q-68 -176 -291 -176q-76 0 -141.5 24.5t-114.5 76t-76.5 128t-27.5 181.5v635h258v-582q0 -109 51 -169t154 -60q117 0 171 74.5t54 203.5v533zM584 1317q0 -41 -15.5 -77t-42 -61.5 t-62.5 -41t-75 -15.5q-41 0 -76 15.5t-61.5 41t-42 61.5t-15.5 77t15.5 77t42 61.5t61.5 40.5t76 15q39 0 75 -15t62.5 -40.5t42 -61.5t15.5 -77zM1071 1317q0 -41 -15.5 -77t-42 -61.5t-62.5 -41t-75 -15.5q-41 0 -75.5 15.5t-61 41t-42 61.5t-15.5 77t15.5 77t42 61.5 t61 40.5t75.5 15q39 0 75 -15t62.5 -40.5t42 -61.5t15.5 -77z" />
<glyph unicode="&#x131;" d="M178 246h344v524h-319v246h577v-770h295v-246h-897v246z" />
<glyph unicode="&#x152;" d="M578 0q-248 0 -388.5 149.5t-140.5 436.5v262q0 279 140.5 432.5t388.5 153.5h622v-258h-352v-328h340v-258h-340v-332h364v-258h-634zM578 1176q-70 0 -119 -24t-80 -64.5t-45.5 -98t-14.5 -125.5v-295q0 -145 55.5 -228t203.5 -83v918z" />
<glyph unicode="&#x153;" d="M90 520q0 121 45 218.5t120 165t173 104t207 36.5h12q121 0 217.5 -36.5t163 -102t101 -154.5t34.5 -194v-172h-393v-160q49 0 89 21.5t59 64.5l208 -131q-61 -111 -181 -160t-294 -49h-12q-104 0 -203.5 35t-176.5 101.5t-123 164t-46 224.5v24zM348 508q0 -102 43 -171 t121 -99v544q-78 -31 -121 -101.5t-43 -172.5zM905 631q0 68 -37 108.5t-98 51.5v-160h135z" />
<glyph unicode="&#x178;" d="M492 504h-62l-412 930h295l295 -684h37l295 684h295l-412 -930h-61v-504h-270v504zM578 1727q0 -41 -15.5 -77t-42 -61.5t-62.5 -41t-75 -15.5q-41 0 -76 15.5t-61.5 41t-42 61.5t-15.5 77t15.5 77t42 61.5t61.5 40.5t76 15q39 0 75 -15t62.5 -40.5t42 -61.5t15.5 -77z M1065 1727q0 -41 -15.5 -77t-42 -61.5t-62.5 -41t-75 -15.5q-41 0 -75.5 15.5t-61 41t-42 61.5t-15.5 77t15.5 77t42 61.5t61 40.5t75.5 15q39 0 75 -15t62.5 -40.5t42 -61.5t15.5 -77z" />
<glyph unicode="&#x2c6;" d="M727 1167l-88 181h-25l-88 -181h-247l172 279h352l172 -279h-248z" />
<glyph unicode="&#x2da;" d="M406 1384q0 45 17 86t47 71t70 47.5t87 17.5q45 0 86 -17.5t70.5 -47.5t47 -70.5t17.5 -86.5q0 -47 -17.5 -87t-47 -69.5t-70.5 -47t-86 -17.5q-47 0 -87 17.5t-70 47t-47 69.5t-17 87zM565 1384q0 -27 17.5 -44t44.5 -17t44 17.5t17 43.5q0 27 -17.5 44.5t-43.5 17.5 q-27 0 -44.5 -17.5t-17.5 -44.5z" />
<glyph unicode="&#x2dc;" d="M659 1423q16 -18 33 -33.5t45 -15.5q29 0 46.5 13.5t33.5 35.5l62 78l157 -125l-114 -147q-37 -47 -80 -68.5t-97 -21.5q-41 0 -78.5 18.5t-72.5 59.5q-16 18 -32.5 33.5t-45.5 15.5t-46 -13.5t-34 -35.5l-61 -78l-158 125l115 147q39 49 82 69.5t94 20.5 q41 0 78.5 -18.5t72.5 -59.5z" />
<glyph unicode="&#x2000;" horiz-adv-x="1008" />
<glyph unicode="&#x2001;" horiz-adv-x="2016" />
<glyph unicode="&#x2002;" horiz-adv-x="1008" />
<glyph unicode="&#x2003;" horiz-adv-x="2016" />
<glyph unicode="&#x2004;" horiz-adv-x="672" />
<glyph unicode="&#x2005;" horiz-adv-x="504" />
<glyph unicode="&#x2006;" horiz-adv-x="336" />
<glyph unicode="&#x2007;" horiz-adv-x="336" />
<glyph unicode="&#x2008;" horiz-adv-x="252" />
<glyph unicode="&#x2009;" horiz-adv-x="403" />
<glyph unicode="&#x200a;" horiz-adv-x="112" />
<glyph unicode="&#x2010;" d="M307 680h639v-234h-639v234z" />
<glyph unicode="&#x2011;" d="M307 680h639v-234h-639v234z" />
<glyph unicode="&#x2012;" d="M307 680h639v-234h-639v234z" />
<glyph unicode="&#x2013;" d="M137 680h979v-234h-979v234z" />
<glyph unicode="&#x2014;" d="M12 680h1229v-234h-1229v234z" />
<glyph unicode="&#x2018;" d="M821 1028q0 -41 -15 -75.5t-42 -60.5t-62.5 -41t-74.5 -15q-41 0 -76 15t-61.5 41t-42 60.5t-15.5 75.5v250q0 78 52.5 131t129.5 53h131v-159h-98q-55 0 -55 -62v-24q8 4 18.5 5t20.5 1q86 0 138 -54.5t52 -140.5z" />
<glyph unicode="&#x2019;" d="M432 1270q0 39 15.5 74.5t42 61.5t61.5 41t76 15q39 0 74.5 -15t62.5 -41t42 -61.5t15 -74.5v-250q0 -78 -52 -131t-130 -53h-131v159h98q55 0 56 62v24q-16 -6 -35 -6q-41 0 -76 15.5t-61.5 42t-42 61.5t-15.5 76z" />
<glyph unicode="&#x201a;" d="M432 195q0 39 15.5 74.5t42 61t61.5 41t76 15.5q39 0 74.5 -15.5t62.5 -41t42 -61.5t15 -74v-250q0 -78 -52 -131.5t-130 -53.5h-131v160h98q55 0 56 62v24q-16 -6 -35 -6q-41 0 -76 15.5t-61.5 42t-42 61.5t-15.5 76z" />
<glyph unicode="&#x201c;" d="M1053 1028q0 -41 -15.5 -75.5t-42 -60.5t-62.5 -41t-75 -15q-41 0 -75.5 15t-61.5 41t-42 60.5t-15 75.5v250q0 78 52 131t130 53h131v-159h-98q-55 0 -56 -62v-24q8 4 18.5 5t20.5 1q86 0 138.5 -54.5t52.5 -140.5zM590 1028q0 -41 -15.5 -75.5t-42 -60.5t-62.5 -41 t-75 -15q-41 0 -75.5 15t-61.5 41t-42 60.5t-15 75.5v250q0 78 52 131t130 53h131v-159h-98q-55 0 -56 -62v-24q8 4 18.5 5t20.5 1q86 0 138.5 -54.5t52.5 -140.5z" />
<glyph unicode="&#x201d;" d="M201 1270q0 39 15 74.5t42 61.5t61.5 41t75.5 15q39 0 75 -15t62.5 -41t42 -61.5t15.5 -74.5v-250q0 -78 -52.5 -131t-129.5 -53h-132v159h99q55 0 55 62v24q-16 -6 -35 -6q-41 0 -75.5 15.5t-61.5 42t-42 61.5t-15 76zM664 1270q0 39 15 74.5t42 61.5t61.5 41t75.5 15 q39 0 75 -15t62.5 -41t42 -61.5t15.5 -74.5v-250q0 -78 -52.5 -131t-130.5 -53h-131v159h99q55 0 55 62v24q-16 -6 -35 -6q-41 0 -75.5 15.5t-61.5 42t-42 61.5t-15 76z" />
<glyph unicode="&#x201e;" d="M201 195q0 39 15 74.5t42 61t61.5 41t75.5 15.5q39 0 75 -15.5t62.5 -41t42 -61.5t15.5 -74v-250q0 -78 -52.5 -131.5t-129.5 -53.5h-132v160h99q55 0 55 62v24q-16 -6 -35 -6q-41 0 -75.5 15.5t-61.5 42t-42 61.5t-15 76zM664 195q0 39 15 74.5t42 61t61.5 41t75.5 15.5 q39 0 75 -15.5t62.5 -41t42 -61.5t15.5 -74v-250q0 -78 -52.5 -131.5t-130.5 -53.5h-131v160h99q55 0 55 62v24q-16 -6 -35 -6q-41 0 -75.5 15.5t-61.5 42t-42 61.5t-15 76z" />
<glyph unicode="&#x2022;" d="M332 717q0 61 23.5 114.5t63.5 93.5t93 63.5t115 23.5q61 0 114.5 -23.5t93 -63.5t63.5 -93.5t24 -114.5t-24 -114.5t-63.5 -93.5t-93 -63.5t-114.5 -23.5t-114.5 23.5t-93.5 63.5t-63.5 93.5t-23.5 114.5z" />
<glyph unicode="&#x2026;" d="M1210 166q0 -41 -15 -77t-42 -61.5t-62.5 -41t-74.5 -15.5q-41 0 -76 15.5t-61.5 41t-42 61.5t-15.5 77t15.5 77t42 61.5t61.5 40.5t76 15q39 0 74.5 -15t62.5 -40.5t42 -61.5t15 -77zM821 166q0 -41 -15 -77t-42 -61.5t-62.5 -41t-74.5 -15.5q-41 0 -76 15.5t-61.5 41 t-42 61.5t-15.5 77q0 -41 -15.5 -77t-42 -61.5t-62.5 -41t-74 -15.5q-41 0 -76 15.5t-61.5 41t-42 61.5t-15.5 77t15.5 77t42 61.5t61.5 40.5t76 15q39 0 74.5 -15t62 -40.5t42 -61.5t15.5 -77q0 41 15.5 77t42 61.5t61.5 40.5t76 15q39 0 74.5 -15t62.5 -40.5t42 -61.5 t15 -77z" />
<glyph unicode="&#x202f;" horiz-adv-x="403" />
<glyph unicode="&#x2039;" d="M872 0l-503 311v394l503 311h13v-291l-357 -199v-37l357 -198v-291h-13z" />
<glyph unicode="&#x203a;" d="M369 0v291l356 198v37l-356 199v291h12l504 -311v-394l-504 -311h-12z" />
<glyph unicode="&#x2044;" d="M1067 1044l84 -159l-967 -496l-84 160z" />
<glyph unicode="&#x205f;" horiz-adv-x="504" />
<glyph unicode="&#x2074;" d="M532 1434h283v-349h86v-143h-86v-98h-160v98h-266v199zM532 1104v-19h123v242h-18z" />
<glyph unicode="&#x20ac;" d="M66 940h137q31 74 80 132t113.5 98t139 61.5t156.5 21.5q98 0 182 -28.5t148.5 -79.5t105.5 -123t56 -158l-230 -53q-8 45 -26.5 85t-49 70.5t-76.5 48t-110 17.5q-66 0 -120 -24.5t-95 -67.5h219v-197h-299v-61h299v-197h-217q84 -84 217 -84q63 0 108.5 19.5t76 50.5 t49 71t28.5 81l230 -54q-16 -86 -58.5 -157.5t-107 -122.5t-149.5 -80t-185 -29q-164 0 -295 79t-190 226h-137v197h98v61h-98v197z" />
<glyph unicode="&#x2122;" d="M61 1434h467v-148h-153v-442h-160v442h-154v148zM578 1434h270l24 -406v-74h25v74l25 406h270v-590h-156v479h-24v-74l-29 -405h-197l-28 405v74h-25v-479h-155v590z" />
<glyph unicode="&#x25fc;" horiz-adv-x="1013" d="M0 1014h1014v-1014h-1014v1014z" />
</font>
</defs>
</svg>
